<svg width="94" height="60" viewBox="0 0 77 49" fill="none" xmlns="http://www.w3.org/2000/svg">
<rect width="76.2112" height="48.7894" fill="black" fill-opacity="0" transform="translate(0 0.065918)"/>
<path d="M9.10673 35.757L17.0384 0.0725366C17.0384 0.0725366 29.5654 -0.305298 36.6997 4.64854C37.8328 5.44619 37.7069 5.94997 37.7069 5.94997V43.2297C37.7069 43.2087 28.4113 35.1273 9.10673 35.757ZM67.2723 35.757L59.3406 0.0725366C59.3406 0.0725366 46.8136 -0.305298 39.6583 4.64854C38.5252 5.44619 38.6511 5.94997 38.6511 5.94997V43.2297C38.6511 43.2087 47.9677 35.1273 67.2723 35.757ZM0 41.7604L38.2525 48.8553L76.2112 41.9703L68.9719 5.27827L64.1458 6.1179L71.427 38.4858C71.427 38.4858 69.9162 38.108 64.1458 38.024C54.3886 37.8561 38.1895 45.3288 38.1895 45.3288C38.1895 45.3288 27.593 40.7528 19.7662 39.0315C11.9395 37.3103 5.11991 38.6747 5.11991 38.6747L12.506 6.13889L7.36512 5.08935L0 41.7604Z" fill="#23376C"/>
</svg>
