<svg width="42" height="60" viewBox="0 0 42 60" fill="none" xmlns="http://www.w3.org/2000/svg">
<rect width="41.5222" height="59.9702" fill="black" fill-opacity="0"/>
<path d="M36.1475 59.9702C25.8934 59.9702 15.6288 59.9702 5.37471 59.9702C4.637 59.6891 3.8466 59.5134 3.17213 59.0918C0.959016 57.7214 0 55.5193 0 52.7434C0 39.8825 0 27.0335 0 14.1727C0 13.9384 -1.60964e-07 13.7041 0.0105385 13.4699C0.147541 10.3308 2.00234 7.76568 4.76346 7.14489C5.91218 6.88721 7.13466 6.9692 8.32552 6.91063C9 6.88721 9.68501 6.91063 10.37 6.91063C10.3911 6.72323 10.4122 6.61781 10.4227 6.50068C10.6124 4.21666 12.2354 2.47143 14.3009 2.34259C15.0176 2.29574 15.7447 2.28402 16.4614 2.33087C17.0304 2.36601 17.4098 2.21374 17.6944 1.6281C18.0421 0.913608 18.6429 0.503656 19.3384 0.257684C19.5703 0.175694 19.7916 0.0819906 20.0234 0C20.5187 0 21.0035 0 21.4988 0C22.6265 0.316249 23.5644 0.913608 24.1546 2.09661C24.2178 2.22546 24.4707 2.30745 24.6393 2.30745C25.5035 2.33087 26.3571 2.29574 27.2213 2.34259C28.9813 2.43629 30.4251 3.70129 30.9414 5.58707C31.0574 6.00874 31.0995 6.45383 31.1838 6.91063C32.5222 6.91063 33.829 6.91063 35.1464 6.91063C36.3056 6.91063 37.4122 7.16832 38.4239 7.82424C40.5738 9.24151 41.5222 11.3967 41.5222 14.1141C41.5222 26.9866 41.5222 39.8591 41.5222 52.7434C41.5222 52.9776 41.5222 53.2119 41.5117 53.4461C41.3747 56.3978 39.6674 58.8341 37.1487 59.6657C36.8115 59.7828 36.4848 59.8648 36.1475 59.9702ZM35.2623 53.0245C35.2623 39.9528 35.2623 26.9163 35.2623 13.833C33.7131 13.833 32.185 13.8213 30.6674 13.8447C30.5515 13.8447 30.4145 14.0087 30.3302 14.1375C29.5293 15.4494 28.3911 16.1287 26.9895 16.1287C22.8478 16.1639 18.6955 16.1521 14.5539 16.1287C13.1417 16.1287 11.993 15.4611 11.171 14.1258C11.0761 13.9735 10.8443 13.8447 10.6651 13.8447C9.7377 13.8213 8.79976 13.833 7.87236 13.833C7.33489 13.833 6.79742 13.833 6.24941 13.833C6.24941 26.9515 6.24941 39.9762 6.24941 53.0362C15.9344 53.0245 25.5667 53.0245 35.2623 53.0245ZM14.5644 6.94577C14.5644 8.48017 14.5644 9.96771 14.5644 11.4904C18.7061 11.4904 22.8162 11.4904 26.9578 11.4904C26.9578 9.956 26.9578 8.46845 26.9578 6.94577C22.8267 6.94577 18.7272 6.94577 14.5644 6.94577ZM17.3255 35.2208C16.4087 34.2603 15.5023 33.2765 14.5644 32.3277C13.9321 31.6835 13.1628 31.5664 12.6569 32.07C12.0667 32.6791 11.4977 33.3233 10.9602 33.9909C10.3595 34.7523 10.4333 35.5605 11.0972 36.2633C12.8888 38.1373 14.6698 40.0114 16.4614 41.8855C17.6206 43.1036 18.7588 43.0919 19.8337 41.8152C23.4906 37.4814 27.1265 33.1476 30.7728 28.8138C31.4262 28.0408 31.363 27.1154 30.6253 26.4127C30.1616 25.9676 29.6873 25.5342 29.2026 25.1125C28.4438 24.4449 27.7272 24.5035 27.0738 25.2765C24.0808 28.8138 21.0878 32.3511 18.0421 35.9587C17.7787 35.6893 17.5468 35.4551 17.3255 35.2208Z" fill="#23376C"/>
</svg>
