<svg width="105" height="105" viewBox="0 0 105 105" fill="none" xmlns="http://www.w3.org/2000/svg">
<path fill-rule="evenodd" clip-rule="evenodd" d="M52.5 0C81.4951 0 105 23.5049 105 52.5C105 81.4951 81.4951 105 52.5 105C23.5049 105 0 81.4951 0 52.5C0 23.5049 23.5049 0 52.5 0Z" fill="#FEFEFE"/>
<path fill-rule="evenodd" clip-rule="evenodd" d="M33.1441 1.66831C31.558 2.64166 32.1175 2.09964 31.9145 4.15876C29.1437 4.63982 29.7395 3.15378 29.4839 6.84243C26.4534 7.78673 23.149 8.39979 20.0075 9.24834C16.6216 10.1624 13.0397 10.2306 11.8717 13.2182C11.227 14.867 11.6428 33.4284 11.5821 36.8891C9.50543 37.8569 1.56368 40.8144 0 42.4324C1.44837 43.4584 3.11701 44.35 4.60477 45.3737C5.70982 46.134 5.34233 46.6579 5.41796 48.313C5.47547 49.5753 5.60601 50.8135 5.67934 52.0715C6.10663 52.0272 11.4567 49.1558 13.7413 48.3817C14.227 48.7176 14.7903 49.768 15.6147 50.5863C18.0597 53.0127 19.205 54.3124 22.2924 56.381C23.9754 57.5087 30.8265 62.0963 33.1924 62.1276C35.6181 62.1598 42.5017 57.5458 44.1229 56.4158C46.5271 54.7402 51.5054 50.8069 52.6251 48.3559C56.3146 49.517 58.8165 51.4217 60.7986 52.1903L61.1925 45.8358C62.3669 45.2664 65.046 43.0673 66.4843 42.5698C65.9051 41.8144 64.912 41.4493 63.8601 40.8632C62.8873 40.3212 61.9376 39.8686 60.9435 39.429C58.9813 38.5614 57.0096 37.5855 54.9131 36.9966C54.855 33.6378 55.1477 15.2408 54.7687 13.7177C53.9541 10.4437 50.6327 10.2841 47.3029 9.45364C45.0514 8.89235 39.8166 7.88249 38.001 7.06787C38.0102 6.17647 38.1204 5.22527 37.8366 4.38563L35.5977 4.17946C35.5563 3.63628 35.6316 2.92806 35.4499 2.45677C35.1678 1.7241 35.016 2.07117 34.3682 1.66889C34.3371 0.984529 34.5214 0.0183726 33.7508 0.000257186C32.9175 -0.019296 33.1774 1.08086 33.1444 1.66889L33.1441 1.66831Z" transform="translate(18.8062 18.0564)" fill="#23376C"/>
<path fill-rule="evenodd" clip-rule="evenodd" d="M23.1844 2.68339C24.9485 3.39219 27.9243 3.93709 29.8914 4.42305C30.7 4.62289 36.0388 5.67761 36.2234 6.27025L36.2062 26.4782C36.9026 35.4772 35.6412 36.3373 31.1552 40.7319C30.0886 41.7768 26.9998 44.0312 25.6535 44.8605C24.7854 45.395 20.2744 48.1698 19.3436 48.1908C17.7388 48.2273 10.8052 43.4696 8.8283 41.9137C6.89598 40.3926 4.20972 37.756 3.0857 35.5543C1.9542 33.3382 2.44821 29.3531 2.40047 26.571L2.4623 5.98759L16.3937 2.49763L16.9098 0C14.8535 0.314289 6.85975 2.43466 3.98313 3.19522C2.51291 3.58369 0.795966 3.70159 0.260266 4.91791C-0.181405 5.92116 0.0727852 23.5952 0.0727852 26.2858C0.0727852 35.5365 -0.732059 35.8896 5.68598 42.2202C7.76236 44.2684 15.0842 49.5072 18.7846 50.5832L19.2803 49.6343L19.6794 50.6177C21.6362 50.105 24.9738 47.9979 26.6415 46.9785C30.3526 44.7101 35.4922 40.582 37.625 36.6412C39.0454 34.0165 38.577 30.09 38.577 26.8526C38.577 23.6128 38.7725 7.23065 38.5353 5.54822C38.2946 3.8422 37.0202 3.7798 35.4534 3.39621C32.2826 2.62013 24.8076 0.535125 22.5992 0.239239L23.1846 2.6831L23.1844 2.68339Z" transform="translate(32.8342 27.0503)" fill="white"/>
<path fill-rule="evenodd" clip-rule="evenodd" d="M0 24.0734C2.39469 23.1027 5.24658 23.1395 7.59929 22.3562C7.5274 20.0302 7.32324 20.1366 9.55892 20.1714L13.9935 0L0.0621111 3.48995L0.000287828 24.0734H0Z" transform="translate(35.2349 29.5481)" fill="#CDCDCF"/>
<path fill-rule="evenodd" clip-rule="evenodd" d="M13.0218 23.7948L13.0391 3.58686C12.8545 2.99422 7.51561 1.9395 6.70702 1.73966C4.73992 1.25399 1.7641 0.708803 0 0L4.33333 19.9672C6.89077 20.0219 6.17794 19.8643 6.31597 22.3309L13.0213 23.7948H13.0218Z" transform="translate(56.0183 29.7336)" fill="#CDCDCF"/>
<path fill-rule="evenodd" clip-rule="evenodd" d="M3.47529 0.284885L4.97916 0.669911C8.44295 1.16938 12.131 2.9769 13.9273 5.99097C13.5483 5.72728 12.6256 4.69787 10.9823 3.56321C9.45396 2.50791 4.51506 0.457988 3.01665 0.924389C2.48498 1.08973 1.93605 1.69358 1.42767 2.02512C0.192654 2.83083 1.00181 1.60358 0 2.93434L13.7732 12.2721C14.4607 12.7802 14.6816 13.4263 15.9548 13.4419C17.1409 13.4563 17.4118 12.8797 18.0461 12.3828C20.8805 10.1624 28.309 5.5884 31.9168 2.93434C31.1361 1.66971 31.7883 2.72242 30.6269 2.06336C30.1421 1.78818 29.3738 1.08944 29.044 0.956882C28.0539 0.559205 25.8047 1.40258 24.7799 1.75425C22.9997 2.36529 20.9498 3.3533 19.6371 4.54575C19.4016 4.75969 19.2009 4.94688 18.9571 5.17261L18.2805 5.73994C18.2477 5.76409 18.1899 5.80579 18.1419 5.83454C19.7234 3.39557 22.2492 1.84713 25.213 1.05494L28.4597 0.232554C26.6495 -0.603345 20.1076 1.76403 17.6697 4.8379C16.8597 5.85955 16.4842 6.87862 16.0014 8.3546C14.9303 6.17212 14.5982 4.26425 11.5208 2.45989C10.6323 1.93914 4.33218 -0.895206 3.47558 0.284885H3.47529Z" transform="translate(36.0454 57.7661)" fill="#EDEDEE"/>
<path fill-rule="evenodd" clip-rule="evenodd" d="M0.0100634 12.1171L3.22915 12.118L3.23231 5.94866C3.26567 5.98806 3.31139 5.99898 3.32548 6.06828L5.94273 10.4882L7.42101 10.4948L10.0684 5.9038L10.1265 12.1298L13.3666 12.1277L13.3537 0.0358341L10.0463 0.0545288L6.72888 6.27589L4.14757 1.52821C4.01156 1.26999 3.89913 1.01493 3.76485 0.780584C3.17394 -0.251996 3.33554 0.0387087 0 0.0349706L0.00948778 12.1171H0.0100634Z" transform="translate(51.5798 83.208)" fill="#23376C"/>
<path fill-rule="evenodd" clip-rule="evenodd" d="M3.61698 0.256308C-0.0181836 1.1963 -0.198768 3.93519 0.0962547 8.05372C0.336356 11.4042 3.31161 13.1741 6.99422 12.2355C10.4767 11.3481 10.7128 8.37289 10.4514 4.44845C10.2254 1.05454 7.2832 -0.692022 3.61698 0.256308Z" transform="translate(66.5691 83.0571)" fill="#23376C"/>
<path fill-rule="evenodd" clip-rule="evenodd" d="M3.71605 0.170459C0.0486804 0.960925 -0.138512 3.98189 0.0483932 7.86032C0.235874 11.7517 3.55704 12.9433 6.74852 12.2934C10.4196 11.5458 10.62 8.45526 10.4228 4.63434C10.2201 0.709609 6.77325 -0.488023 3.71634 0.170747L3.71605 0.170459Z" transform="translate(27.0227 83.0598)" fill="#23376C"/>
<path fill-rule="evenodd" clip-rule="evenodd" d="M0 12.0321L8.15885 12.0844L8.20198 14.6744L11.4383 14.6384L11.4274 9.06922L9.75416 8.96686L9.74554 0.0385338L6.32689 0.000863483L6.2343 9.22565H3.52992L3.52906 0.0276034L0.0937405 0L0 12.0321Z" transform="translate(39.1638 83.26)" fill="#23376C"/>
<path fill-rule="evenodd" clip-rule="evenodd" d="M1.07803 0.140338C-0.298748 0.540316 0.0302033 2.10399 0.0440056 4.34513C0.0540697 5.96316 0.389351 7.6525 2.47579 6.89596C3.831 6.40483 3.383 3.88908 3.37696 2.64113C3.36833 0.889972 3.10236 -0.447407 1.07803 0.140626V0.140338Z" transform="translate(30.5459 85.8147)" fill="white"/>
<path fill-rule="evenodd" clip-rule="evenodd" d="M1.10212 0.134887C-0.333023 0.597838 0.0456749 2.59543 0.0439496 4.17061C0.0425119 5.80991 0.1213 7.63957 2.37337 6.94227C3.66129 6.54344 3.36282 4.40697 3.36627 2.84099C3.37 1.20255 3.05658 -0.495703 1.10184 0.134599L1.10212 0.134887Z" transform="translate(70.1377 85.803)" fill="white"/>
<path fill-rule="evenodd" clip-rule="evenodd" d="M0 29.8678H17.3336V31.2701H0V29.8678ZM7.16221 4.80864H10.1024L10.5314 6.73808H6.74757L7.16221 4.80864ZM10.9921 8.80928L12.0042 13.36L9.31623 10.557L10.9923 8.80928H10.9921ZM11.3535 14.168H5.85302L8.60311 11.3003L11.3532 14.168H11.3535ZM5.35958 13.1958L6.28635 8.88404L7.89028 10.5567L5.3593 13.1958H5.35958ZM6.70962 7.83852H10.4972L8.6034 9.8134L6.70962 7.83852ZM12.5819 15.9565L13.7315 21.1255L9.52096 18.1324L12.5819 15.9565ZM12.2423 21.3296H5.02344L8.63302 18.7639L12.2426 21.3296H12.2423ZM3.67715 21.0243L4.75545 16.0077L7.74478 18.1327L3.67715 21.0243ZM5.49214 15.2687H11.7736L8.63302 17.5012L5.49243 15.2687H5.49214ZM14.0651 22.6253L15.3444 28.3777L9.59687 25.0735L13.9713 22.5586L14.0651 22.6253ZM13.9282 28.7504H3.20097L8.56458 25.667L13.9282 28.7504ZM2.14021 28.173L3.32634 22.6552L7.53229 25.0732L2.14021 28.173ZM4.999 22.4298H12.1302L8.56458 24.4797L4.999 22.4298ZM5.65403 2.41712H11.8308V3.75996H5.65403V2.41712ZM7.98029 0H9.50457V1.34284H7.98029V0Z" transform="translate(43.8828 20.9663)" fill="#FEFEFE"/>
<path d="M15.0424 76.6968L14.5467 77.5838L15.5678 78.7711L16.5193 78.414L17.2289 79.2395L12.4994 80.9134L11.9691 80.2969L14.3328 75.8712L15.0424 76.6968ZM13.8008 78.8813L13.2772 79.695L13.2947 79.7154L14.1631 79.3232L14.6948 79.0963L14.0944 78.3982L13.8008 78.8813ZM12.581 73.486L11.0217 74.5867L11.9053 75.8384L13.4647 74.7377L14.0616 75.5831L10.2404 78.2806L9.64346 77.4352L11.1752 76.3537L10.2916 75.102L8.75982 76.1835L8.17064 75.3487L11.9918 72.6513L12.581 73.4857V73.486ZM6.61099 72.8822C6.47124 72.6372 6.38498 72.3933 6.35248 72.1515C6.31999 71.9094 6.33465 71.6794 6.3959 71.4614C6.45715 71.2432 6.56383 71.0419 6.71623 70.8567C6.86863 70.6718 7.05755 70.5148 7.28327 70.386L8.24051 69.8396C8.48177 69.7019 8.72244 69.6151 8.96197 69.5786C9.20178 69.5423 9.43038 69.5538 9.64719 69.6131C9.86429 69.6723 10.0659 69.779 10.2519 69.9334C10.4379 70.0875 10.5998 70.2853 10.7376 70.5266C10.8885 70.7911 10.9774 71.0462 11.0038 71.2915C11.0306 71.5367 11.0079 71.7662 10.9363 71.9801C10.8647 72.1938 10.7511 72.3876 10.5949 72.5618C10.4391 72.7361 10.2559 72.883 10.046 73.0029L9.08878 73.5493C8.87858 73.6692 8.66005 73.7517 8.4326 73.7963C8.20543 73.8409 7.98143 73.8397 7.76117 73.7925C7.54091 73.7454 7.33187 73.6482 7.13403 73.5004C6.9362 73.3526 6.76195 73.1464 6.6107 72.8819L6.61099 72.8822ZM7.45637 72.4112C7.52136 72.525 7.59555 72.6116 7.67894 72.6723C7.76319 72.7338 7.85146 72.7738 7.94492 72.7925C8.03837 72.8114 8.13326 72.8129 8.22844 72.7945C8.32362 72.7761 8.41218 72.7439 8.49384 72.697L9.59687 72.0673C9.6863 72.0161 9.76423 71.9537 9.83036 71.8798C9.8965 71.8059 9.94452 71.7231 9.97586 71.6331C10.0069 71.5431 10.0187 71.4462 10.0107 71.3412C10.0029 71.2371 9.96666 71.129 9.90167 71.0151C9.77688 70.796 9.61499 70.664 9.41687 70.6198C9.21817 70.5746 9.02178 70.608 8.8274 70.719L7.72408 71.3487C7.54523 71.4508 7.42446 71.5986 7.36235 71.7927C7.29966 71.9856 7.33129 72.1921 7.45609 72.4109L7.45637 72.4112ZM2.84039 64.7319L6.33868 63.3627L6.16471 62.9184L8.02974 62.1886L8.34346 62.9897L7.33589 63.3839L8.43576 66.1938L9.44332 65.7996L9.75934 66.607L7.95067 67.315L7.66427 66.8785C7.56823 66.8296 7.4719 66.7951 7.375 66.7753C7.2781 66.7554 7.16394 66.752 7.03196 66.7652C6.89997 66.7784 6.74067 66.8106 6.55377 66.8621C6.36686 66.9136 6.1328 66.9846 5.85071 67.0757L3.99891 67.6922L2.84039 64.7319ZM4.08259 65.3427L4.54784 66.532L5.57754 66.1938C5.71442 66.1498 5.85934 66.1027 6.01289 66.0524C6.16644 66.002 6.31913 65.9589 6.47124 65.9235C6.62335 65.8882 6.77201 65.8623 6.91751 65.8465C7.06272 65.8304 7.19557 65.835 7.31605 65.86L6.71105 64.3141L4.08259 65.343V65.3427ZM6.15235 59.5492L2.54939 60.5648L2.96518 62.0396L6.56814 61.024L6.84908 62.0201L2.34696 63.289L1.37332 59.835L5.87544 58.5658L6.15264 59.5489L6.15235 59.5492ZM0.778101 56.9613C0.728931 56.6835 0.729793 56.425 0.780689 56.1861C0.831585 55.9471 0.922737 55.7355 1.05357 55.5506C1.18469 55.3657 1.35319 55.2119 1.55879 55.0891C1.76439 54.966 1.99529 54.882 2.2512 54.8366L3.3364 54.6442C3.60986 54.5959 3.86578 54.5948 4.10358 54.6414C4.34167 54.6879 4.55273 54.7756 4.73733 54.9045C4.92165 55.0333 5.07549 55.2018 5.19885 55.4097C5.3222 55.6176 5.40789 55.8583 5.45649 56.1317C5.50968 56.4316 5.50738 56.7016 5.44987 56.9417C5.39236 57.1818 5.29402 57.3903 5.15456 57.5674C5.01539 57.7443 4.84315 57.8886 4.63755 58.0002C4.43225 58.1118 4.21026 58.1885 3.97217 58.2308L2.88697 58.4232C2.64859 58.4654 2.4151 58.4692 2.18593 58.4347C1.95704 58.4002 1.74656 58.324 1.55476 58.2055C1.36326 58.087 1.19907 57.9249 1.06249 57.7193C0.9259 57.5137 0.83101 57.2609 0.777814 56.961L0.778101 56.9613ZM1.73276 56.8023C1.75576 56.9314 1.79602 57.0381 1.85468 57.1232C1.91305 57.2094 1.98321 57.2767 2.06459 57.3259C2.14625 57.3751 2.2351 57.4084 2.33114 57.4231C2.42718 57.438 2.52121 57.4372 2.6138 57.4205L3.86434 57.1988C3.96584 57.181 4.06016 57.1482 4.14729 57.101C4.23441 57.0536 4.30745 56.9918 4.36726 56.9176C4.42678 56.8434 4.47049 56.756 4.49809 56.6545C4.52599 56.5541 4.52829 56.4397 4.50557 56.3109C4.46158 56.0627 4.35374 55.8838 4.18208 55.7757C4.01013 55.6662 3.81402 55.6317 3.59347 55.6708L2.34293 55.8925C2.13992 55.9284 1.9766 56.0268 1.85295 56.1886C1.72902 56.3494 1.68905 56.5544 1.73304 56.8026L1.73276 56.8023ZM0.0635476 50.3075C0.0563589 50.0254 0.0960402 49.77 0.182017 49.5414C0.268281 49.3128 0.389913 49.117 0.547201 48.954C0.704489 48.7909 0.893983 48.6641 1.11597 48.5733C1.33767 48.4827 1.57863 48.4341 1.83829 48.4275L2.94017 48.3999C3.21794 48.393 3.47098 48.4301 3.69929 48.512C3.9276 48.5937 4.12342 48.7121 4.28646 48.8671C4.4495 49.0221 4.57631 49.2119 4.66717 49.4359C4.75804 49.6599 4.80692 49.9109 4.81382 50.1884C4.82158 50.4929 4.77903 50.7595 4.68615 50.9884C4.59327 51.217 4.46474 51.4085 4.30055 51.5626C4.13636 51.7167 3.94428 51.8337 3.72431 51.9131C3.50462 51.9925 3.27372 52.0353 3.03189 52.0414L1.93001 52.069C1.68819 52.075 1.45642 52.0439 1.23501 51.9755C1.0136 51.9071 0.817208 51.8001 0.645542 51.6543C0.473877 51.5085 0.335854 51.3236 0.231475 51.0999C0.127383 50.8762 0.0713112 50.6123 0.063835 50.3075H0.0635476ZM1.03114 50.2934C1.03459 50.4242 1.05846 50.5358 1.1036 50.6286C1.14846 50.7227 1.2077 50.7997 1.28073 50.8607C1.35406 50.9217 1.43687 50.9677 1.52946 50.9967C1.62205 51.0257 1.7155 51.039 1.80953 51.0367L3.07934 51.0048C3.18228 51.0022 3.28033 50.9841 3.37379 50.9504C3.46724 50.9168 3.5489 50.8664 3.61878 50.802C3.68894 50.7376 3.7453 50.6577 3.78757 50.5614C3.82983 50.4662 3.84939 50.3538 3.84623 50.2226C3.8399 49.9707 3.75996 49.7778 3.60641 49.6449C3.45286 49.5109 3.26423 49.4474 3.04023 49.4529L1.77043 49.4848C1.56425 49.49 1.38799 49.5627 1.24134 49.7042C1.09469 49.8445 1.02453 50.0412 1.03085 50.2934H1.03114ZM2.466 44.8421C2.54278 44.6592 2.66527 44.5212 2.83406 44.4283C3.00285 44.3354 3.20126 44.2661 3.42928 44.2204L4.95759 43.8842L4.87823 44.9364L3.66536 45.2021C3.5098 45.2397 3.38155 45.2863 3.28091 45.3415C3.17998 45.3967 3.10119 45.4594 3.04426 45.5293C2.98732 45.5992 2.94678 45.6748 2.92263 45.7559C2.89847 45.8373 2.88294 45.9226 2.87633 46.0121L2.83895 46.5078L4.74883 46.6519L4.67091 47.6839L0 47.3313L0.0779249 46.2993L1.94755 46.4405L1.98235 45.9781C1.98781 45.9066 1.98695 45.8289 1.97976 45.7455C1.97257 45.6618 1.94842 45.5802 1.9073 45.5008C1.86618 45.4212 1.80321 45.3447 1.71895 45.2708C1.6347 45.1972 1.51595 45.1319 1.36297 45.0755L0.225437 44.6123L0.300774 43.6137L1.62924 44.1384C1.84346 44.2175 2.02145 44.3161 2.16293 44.4349C2.3044 44.5534 2.399 44.6865 2.44616 44.8337L2.466 44.8418V44.8421ZM1.5378 41.0599L5.25837 41.5292L5.12897 42.5561L1.4084 42.0868L1.24882 43.3537L0.328666 43.2375L0.777814 39.6769L1.69796 39.793L1.53838 41.0599H1.5378ZM1.78221 35.3752L6.34156 36.4198L6.11037 37.4285L4.26949 37.0067L4.16425 37.4653C4.14527 37.5481 4.13837 37.6281 4.14384 37.7054C4.1493 37.7825 4.17288 37.8593 4.21515 37.9355C4.25742 38.012 4.32154 38.0884 4.40723 38.1658C4.49292 38.2429 4.60449 38.3225 4.74193 38.4045L5.75726 38.968L5.514 40.0294L4.3293 39.3925C4.18208 39.3128 4.04866 39.213 3.92875 39.0937C3.80913 38.9744 3.74185 38.8165 3.72689 38.6201C3.65759 38.742 3.57248 38.8433 3.47126 38.9235C3.37005 39.0037 3.25848 39.0644 3.13656 39.1055C3.01464 39.1463 2.88783 39.1679 2.75642 39.1699C2.62501 39.1719 2.49361 39.1581 2.36277 39.1279C2.14424 39.0779 1.95906 38.9939 1.80666 38.8763C1.65454 38.7587 1.5355 38.6201 1.45039 38.4602C1.36527 38.3007 1.31236 38.1241 1.29252 37.9312C1.27239 37.7382 1.28533 37.5412 1.33134 37.3402L1.78164 35.3749L1.78221 35.3752ZM2.64284 38.089C2.81307 38.1281 2.94362 38.0959 3.03391 37.9924C3.1242 37.8889 3.19033 37.7454 3.23231 37.5622L3.40484 36.8089L2.44846 36.5897L2.26846 37.3759C2.22532 37.5637 2.23453 37.7198 2.29577 37.844C2.35702 37.9683 2.47261 38.0499 2.64284 38.089ZM6.58108 35.7153L2.14711 34.2258L3.1334 31.2888L4.01271 31.5841L3.35567 33.54L4.17748 33.8161L4.48142 32.9115C4.56682 32.6564 4.67954 32.445 4.81871 32.2768C4.95788 32.1086 5.11086 31.9804 5.27763 31.8921C5.44441 31.8038 5.61694 31.7544 5.7955 31.7434C5.97407 31.7325 6.14832 31.7555 6.31826 31.8127C6.75994 31.9611 7.06013 32.2144 7.21857 32.5724C7.37701 32.9307 7.37442 33.354 7.21052 33.8422L6.58137 35.7153H6.58108ZM6.02238 32.8194C5.89931 32.778 5.77365 32.7855 5.64627 32.8419C5.5186 32.8982 5.41968 33.0305 5.34981 33.2387L5.05651 34.1114L6.03129 34.4386L6.32459 33.5659C6.39446 33.3577 6.39331 33.1921 6.32143 33.0687C6.24954 32.9454 6.14976 32.862 6.02238 32.8194ZM6.51667 27.2729C6.70875 27.3592 6.8692 27.4777 6.99774 27.6289C7.12656 27.7799 7.2203 27.9484 7.27896 28.1344C7.33791 28.3205 7.36062 28.5186 7.34739 28.7285C7.33417 28.9387 7.28183 29.146 7.18982 29.3505L6.81543 30.1844L8.37307 30.8834L7.94923 31.8277L3.68175 29.9126L4.47135 28.1528C4.57228 27.928 4.69564 27.7379 4.84171 27.5823C4.98779 27.4268 5.1491 27.3103 5.32652 27.2327C5.50364 27.1551 5.69314 27.1185 5.895 27.1231C6.09685 27.1277 6.30389 27.1778 6.51638 27.2732L6.51667 27.2729ZM6.06896 28.2213C5.8973 28.1442 5.74662 28.1379 5.61694 28.2026C5.48725 28.267 5.38029 28.3935 5.29575 28.5813L4.95184 29.3479L5.96976 29.8045L6.32488 29.0135C6.39475 28.8582 6.40827 28.7046 6.36571 28.5531C6.32344 28.4016 6.22452 28.2909 6.06925 28.221L6.06896 28.2213ZM10.1165 24.3115C10.521 24.5424 10.7666 24.8489 10.8529 25.2311C10.9391 25.6129 10.8546 26.0279 10.5993 26.4753L9.62304 28.1853L5.56058 25.8666L6.07356 24.9677L7.63207 25.8571L8.10163 25.0341C8.23505 24.8006 8.3863 24.6149 8.55509 24.4766C8.72446 24.3385 8.89928 24.2422 9.07986 24.1879C9.26044 24.1335 9.4393 24.1183 9.61671 24.1421C9.79413 24.166 9.96062 24.2224 10.1162 24.3112L10.1165 24.3115ZM9.63167 25.242C9.51895 25.1776 9.39444 25.1609 9.25814 25.1914C9.12213 25.2222 8.99964 25.3326 8.89066 25.5235L8.43432 26.3229L9.32715 26.8327L9.78349 26.033C9.89247 25.8424 9.92324 25.6796 9.87665 25.5445C9.83007 25.4096 9.74812 25.3087 9.63138 25.242H9.63167ZM12.688 21.2342C12.9209 21.541 13.0354 21.8783 13.031 22.2455C13.0267 22.6127 12.8982 22.9756 12.6449 23.3344C12.4692 23.5831 12.2794 23.7744 12.0764 23.9066C11.8734 24.0389 11.6629 24.1194 11.4446 24.149C11.227 24.1778 11.0056 24.1571 10.7798 24.0884C10.555 24.0185 10.3321 23.9066 10.1127 23.7516L9.21242 23.1162C9.01488 22.9767 8.84752 22.8134 8.71008 22.6273C8.57349 22.4404 8.47918 22.238 8.42771 22.0192C8.3771 21.7998 8.37595 21.57 8.42512 21.3294C8.47458 21.0887 8.5873 20.8434 8.76299 20.5944C9.02149 20.2283 9.32514 19.9862 9.67451 19.868C10.0239 19.7499 10.3784 19.7467 10.7384 19.8583L10.4581 20.8615C10.3057 20.7977 10.1469 20.7873 9.98247 20.8302C9.818 20.873 9.67365 20.9823 9.54943 21.158C9.47466 21.2641 9.42751 21.3679 9.40795 21.4691C9.3884 21.5706 9.38984 21.6675 9.41227 21.7601C9.4347 21.8527 9.47438 21.9384 9.53131 22.0169C9.58825 22.0954 9.65524 22.1618 9.73202 22.2161L10.7698 22.9488C10.854 23.0083 10.9435 23.0523 11.0383 23.0808C11.1332 23.1096 11.2281 23.1188 11.323 23.109C11.4176 23.0992 11.5105 23.0687 11.6014 23.0175C11.6922 22.9666 11.775 22.8879 11.8501 22.7818C11.9714 22.6098 12.0255 22.4381 12.012 22.2668C11.9985 22.0954 11.9326 21.9461 11.8141 21.8188L12.6874 21.2342H12.688ZM13.8618 17.8173C14.032 17.7155 14.2126 17.6772 14.4035 17.7025C14.5944 17.7278 14.7954 17.7897 15.0062 17.8883L16.4362 18.524L15.7481 19.3243L14.614 18.8188C14.4662 18.757 14.3356 18.7181 14.2215 18.7032C14.1076 18.688 14.007 18.6914 13.9198 18.7138C13.8327 18.7363 13.7551 18.7731 13.6875 18.8242C13.6199 18.8754 13.557 18.935 13.4983 19.0028L13.174 19.3801L14.6264 20.6289L13.9518 21.4136L10.4 18.3596L11.0749 17.5749L12.4965 18.7972L12.7987 18.4458C12.8456 18.3915 12.8907 18.3285 12.9347 18.2569C12.9787 18.1853 13.0075 18.1054 13.0216 18.0168C13.0356 17.9283 13.0305 17.8296 13.0063 17.7201C12.9822 17.6108 12.9252 17.488 12.8355 17.3517L12.1943 16.3042L12.8473 15.5448L13.6056 16.7551C13.7312 16.9457 13.8158 17.1309 13.8595 17.3103C13.9032 17.4897 13.9003 17.6528 13.8511 17.7994L13.8621 17.8175L13.8618 17.8173ZM16.7617 18.1612L13.5216 14.7874L14.2681 14.0705L16.2979 16.1837L16.3125 16.1699L15.9675 14.4233L15.6837 12.7113L16.2993 12.1201L19.5394 15.4936L18.7929 16.2104L16.833 14.1697L16.8186 14.1838L17.0924 15.4585L17.4262 17.5234L16.7623 18.1612H16.7617ZM18.6428 9.88413C18.4918 10.0038 18.3423 10.0748 18.1945 10.0975C18.0467 10.1202 17.9081 10.1127 17.7787 10.0754C17.649 10.038 17.5303 9.9819 17.4227 9.90714C17.3149 9.83237 17.224 9.75876 17.1493 9.6863L17.6761 9.26907C17.704 9.30415 17.7399 9.33722 17.7842 9.3677C17.8285 9.39847 17.8776 9.42233 17.9314 9.43987C17.9852 9.45741 18.0404 9.46374 18.0968 9.45914C18.1531 9.45454 18.206 9.43268 18.2552 9.39386C18.3044 9.35476 18.3377 9.30846 18.3553 9.25469C18.3725 9.20092 18.3791 9.14571 18.3745 9.08935C18.3699 9.03299 18.3578 8.9798 18.338 8.92976C18.3182 8.87973 18.2946 8.83689 18.2667 8.80181L18.7938 8.38486C18.8472 8.474 18.8979 8.57953 18.9459 8.70174C18.9939 8.82366 19.0212 8.95219 19.0278 9.08677C19.0344 9.22134 19.0097 9.35821 18.9536 9.49681C18.8976 9.6354 18.7941 9.76451 18.6431 9.88413H18.6428ZM20.1818 14.9573L17.2784 11.2899L18.0899 10.6476L19.9086 12.9451L19.9244 12.9327L19.7478 11.1611L19.6285 9.42981L20.2976 8.90015L23.201 12.5675L22.3895 13.2099L20.6335 10.9915L20.6177 11.0041L20.7686 12.299L20.9038 14.3863L20.1818 14.9576V14.9573ZM28.382 9.437L25.4916 11.1111L23.1472 7.06359L24.0426 6.54485L25.9189 9.78407L27.2451 9.01603L25.3688 5.77681L26.2527 5.26498L28.1359 8.5157L28.665 8.20917L29.6688 9.94222L28.9243 10.3735L28.382 9.43728V9.437ZM29.6415 8.86708L27.7028 4.61024L30.712 3.23979L31.0965 4.08374L29.029 5.02517L29.4218 5.88752L31.1833 5.08526L31.5537 5.89873L29.7921 6.70099L30.1987 7.59382L32.2662 6.65239L32.6506 7.49634L29.6415 8.86679V8.86708ZM35.6118 6.5391L34.9962 4.73244L33.5458 5.22674L34.1614 7.03339L33.1817 7.36724L31.6727 2.93988L32.6524 2.60604L33.2574 4.38077L34.7078 3.88648L34.1028 2.11174L35.0698 1.78221L36.5788 6.20957L35.6118 6.5391ZM38.4211 1.96826L39.2703 5.62096L38.2621 5.85531L37.413 2.20261L36.1691 2.49188L35.9592 1.58841L39.4549 0.775801L39.6648 1.67899L38.4208 1.96826H38.4211ZM44.1304 1.6787C44.1571 1.88746 44.1396 2.08644 44.078 2.27478C44.0165 2.46341 43.9216 2.63134 43.7937 2.77856C43.6657 2.92608 43.5087 3.04886 43.3227 3.1472C43.1366 3.24554 42.9322 3.3088 42.7102 3.33727L41.8035 3.45344L42.0204 5.14651L40.9938 5.27792L40.3997 0.638066L42.3128 0.393076C42.5572 0.361734 42.7838 0.367773 42.9928 0.410905C43.2016 0.454324 43.3853 0.531099 43.5441 0.641805C43.7028 0.75251 43.8328 0.894846 43.9343 1.06939C44.0358 1.24393 44.101 1.44665 44.1307 1.67755L44.1304 1.6787ZM43.088 1.79199C43.0642 1.60537 42.9908 1.47368 42.868 1.39661C42.7453 1.31984 42.5816 1.29425 42.3772 1.32041L41.5439 1.42709L41.6857 2.53357L42.5457 2.42344C42.7145 2.40188 42.8525 2.33344 42.9598 2.21814C43.067 2.10283 43.1096 1.96078 43.088 1.7917V1.79199ZM50.1999 4.7612L50.2566 2.53731L50.2367 2.53012L49.7893 3.46666L49.4569 4.11709L48.6641 4.09697L48.3524 3.3965L47.966 2.47233L47.9453 2.49217L47.8889 4.70254L46.8543 4.67608L46.9734 0L47.9085 0.0238664L48.5065 1.39719L49.0765 2.81681L49.1035 2.81738L49.7249 1.42824L50.3788 0.0868392L51.3541 0.111568L51.2351 4.78765L50.2005 4.7612H50.1999ZM54.5675 5.19108L54.8099 3.29787L53.2899 3.1032L53.0475 4.99641L52.0209 4.865L52.615 0.225437L53.6416 0.356846L53.4035 2.2167L54.9234 2.41137L55.1615 0.551515L56.1748 0.681198L55.5808 5.32077L54.5675 5.19108ZM59.0587 1.26923C59.3335 1.33307 59.5708 1.43543 59.7703 1.57604C59.9699 1.71665 60.1289 1.88372 60.2474 2.07666C60.3658 2.26961 60.4412 2.48498 60.4734 2.72249C60.5056 2.96001 60.4921 3.20528 60.4334 3.45832L60.1838 4.53174C60.1208 4.80232 60.0214 5.03782 59.8851 5.23853C59.7488 5.43923 59.5852 5.59882 59.3942 5.71787C59.2033 5.83662 58.9879 5.91196 58.7484 5.94359C58.5089 5.97522 58.2535 5.95969 57.9829 5.89672C57.6862 5.82771 57.4389 5.71959 57.2408 5.57237C57.0427 5.42514 56.8897 5.25262 56.7816 5.05507C56.6735 4.85753 56.6085 4.64215 56.5866 4.40953C56.5648 4.1769 56.5814 3.94255 56.6361 3.70705L56.8857 2.63335C56.9406 2.39756 57.0286 2.18133 57.1505 1.98436C57.2724 1.78739 57.4251 1.62378 57.6094 1.49438C57.7937 1.3647 58.0071 1.27757 58.2498 1.23271C58.4925 1.18814 58.7622 1.19993 59.0589 1.26923H59.0587ZM58.8298 2.20951C58.7021 2.17989 58.5882 2.17529 58.487 2.19542C58.3846 2.21526 58.2952 2.25322 58.2179 2.309C58.1405 2.3645 58.075 2.43322 58.0238 2.51575C57.9723 2.59799 57.9361 2.68511 57.9148 2.77684L57.6272 4.01386C57.604 4.11422 57.5968 4.21371 57.606 4.31263C57.6152 4.41125 57.6433 4.50298 57.6882 4.58695C57.7331 4.67091 57.796 4.74538 57.8788 4.81066C57.9605 4.87564 58.0643 4.9228 58.192 4.95242C58.4375 5.00935 58.6443 4.9806 58.8114 4.86529C58.9796 4.75027 59.0886 4.58378 59.1392 4.36525L59.4267 3.12822C59.4733 2.92751 59.4471 2.7386 59.3471 2.56118C59.2479 2.38405 59.075 2.26673 58.8298 2.2098V2.20951ZM62.6027 3.24899L61.393 6.79847L60.4133 6.46463L61.9223 2.03727L65.052 3.10407L64.7527 3.98195L62.6027 3.24899ZM67.2373 3.97993C67.4941 4.09697 67.7066 4.24419 67.8743 4.42132C68.0422 4.59874 68.165 4.79398 68.2429 5.00648C68.3208 5.21926 68.3522 5.44527 68.3366 5.68422C68.3211 5.92346 68.2599 6.16126 68.152 6.39763L67.6951 7.40059C67.5801 7.65334 67.4357 7.86469 67.2626 8.03434C67.0893 8.204 66.8975 8.32822 66.6867 8.40729C66.4762 8.48608 66.2502 8.51742 66.0089 8.50103C65.7677 8.48464 65.5207 8.41908 65.2679 8.30377C64.9907 8.17754 64.7696 8.02255 64.6046 7.8391C64.4395 7.65564 64.3236 7.45638 64.2566 7.24129C64.1896 7.02621 64.1686 6.80249 64.1931 6.56987C64.2178 6.33753 64.2802 6.11094 64.3806 5.89097L64.8375 4.88801C64.9378 4.66775 65.0669 4.47308 65.2254 4.304C65.3835 4.13492 65.5658 4.00495 65.772 3.91409C65.9782 3.82322 66.2048 3.78009 66.4515 3.78412C66.6982 3.78814 66.9602 3.85341 67.2376 3.97965L67.2373 3.97993ZM66.827 4.85638C66.7077 4.80203 66.597 4.775 66.4937 4.77471C66.3894 4.77385 66.2945 4.7934 66.2076 4.8328C66.1208 4.8719 66.0432 4.92654 65.9764 4.99699C65.9097 5.06744 65.8571 5.14565 65.818 5.23134L65.2915 6.38728C65.249 6.48102 65.2222 6.57734 65.2116 6.67569C65.2009 6.77431 65.2107 6.86978 65.238 6.96093C65.2654 7.05208 65.3125 7.13777 65.3807 7.218C65.4477 7.29794 65.5405 7.36465 65.6599 7.41899C65.889 7.52337 66.0975 7.53603 66.2841 7.45609C66.4716 7.37644 66.6114 7.23468 66.7042 7.03081L67.2307 5.87487C67.3161 5.68739 67.3279 5.49703 67.2647 5.30322C67.2026 5.10999 67.0562 4.96104 66.827 4.85638ZM69.7959 10.5576L71.6722 7.31835L70.3463 6.55031L68.4701 9.78953L67.5743 9.27079L69.919 5.22329L73.0245 7.02218L70.6801 11.0697L69.7962 10.5579L69.7959 10.5576ZM76.1769 10.9892C76.0544 11.1603 75.9063 11.294 75.7326 11.39C75.5589 11.4861 75.3752 11.5447 75.1811 11.5654C74.987 11.5864 74.7883 11.5692 74.5853 11.5148C74.382 11.4602 74.1894 11.3676 74.0071 11.237L73.264 10.7048L72.27 12.0925L71.4286 11.4898L74.1526 7.68727L75.7206 8.81043C75.921 8.95392 76.0829 9.11264 76.2062 9.28632C76.3299 9.46029 76.4118 9.64173 76.4526 9.83094C76.4935 10.0199 76.4918 10.2131 76.4472 10.4098C76.4026 10.6064 76.3126 10.7997 76.1769 10.9892ZM75.3364 10.3623C75.4459 10.2093 75.4822 10.063 75.4445 9.92295C75.4071 9.7832 75.3045 9.65294 75.1368 9.53304L74.4539 9.04363L73.804 9.95055L74.5088 10.4555C74.6471 10.5547 74.7949 10.5984 74.9519 10.5869C75.1089 10.5754 75.2372 10.5003 75.3361 10.362L75.3364 10.3623ZM79.019 11.313C79.2318 11.4987 79.3931 11.7003 79.5032 11.9182C79.6134 12.1362 79.6752 12.3582 79.689 12.5842C79.7028 12.8102 79.668 13.0356 79.5849 13.2605C79.5018 13.4851 79.3747 13.6956 79.2039 13.8914L78.4793 14.7218C78.2967 14.9312 78.098 15.0925 77.8835 15.2055C77.6687 15.3185 77.4493 15.3826 77.225 15.3978C77.0007 15.4131 76.775 15.3786 76.5487 15.2937C76.3221 15.2089 76.1044 15.0755 75.8951 14.8929C75.6656 14.6925 75.498 14.4809 75.3922 14.258C75.2864 14.0349 75.2323 13.8109 75.2297 13.5854C75.2271 13.3603 75.2708 13.1397 75.3608 12.9241C75.4511 12.7084 75.5756 12.5094 75.7346 12.3271L76.4593 11.4967C76.6183 11.3144 76.798 11.1649 76.9981 11.0481C77.198 10.9311 77.4099 10.8589 77.6336 10.831C77.857 10.8031 78.0865 10.8264 78.3217 10.9009C78.5569 10.9754 78.7895 11.1128 79.019 11.313ZM78.3752 12.0356C78.2763 11.9496 78.1779 11.8918 78.079 11.8622C77.9795 11.8317 77.8829 11.8231 77.7883 11.836C77.694 11.8487 77.604 11.8786 77.5197 11.9272C77.4358 11.9757 77.3627 12.0356 77.3009 12.1063L76.4659 13.0635C76.398 13.1412 76.3451 13.2257 76.3069 13.3172C76.2686 13.4086 76.2505 13.5029 76.2505 13.5981C76.2508 13.6933 76.2715 13.7887 76.3138 13.8851C76.3552 13.9808 76.4248 14.0714 76.5237 14.1574C76.7134 14.3233 76.9098 14.3946 77.1114 14.3716C77.3138 14.3492 77.4884 14.2531 77.6356 14.0843L78.4706 13.1271C78.6061 12.9718 78.6716 12.7927 78.6668 12.5891C78.6624 12.3861 78.565 12.2015 78.3752 12.0358V12.0356ZM82.6605 18.1241C82.4684 18.3058 82.2579 18.4467 82.0285 18.5465C81.799 18.6463 81.5655 18.6995 81.3277 18.7055C81.0899 18.7118 80.8535 18.6655 80.6183 18.5672C80.3834 18.4688 80.1626 18.3139 79.9561 18.1019L79.6438 18.3978L78.9833 17.6999L79.2956 17.4043C79.0964 17.1548 78.956 16.9086 78.8738 16.6653C78.7915 16.4221 78.7602 16.1869 78.7792 15.9591C78.7982 15.7314 78.8652 15.5137 78.9802 15.3064C79.0952 15.0988 79.2487 14.9041 79.4408 14.7224C79.6326 14.5407 79.842 14.3969 80.0683 14.2905C80.2946 14.1841 80.5269 14.1246 80.7647 14.1122C81.0028 14.0999 81.2403 14.1404 81.4769 14.2341C81.7136 14.3279 81.9399 14.4823 82.1558 14.6974L82.3804 14.4849L83.0409 15.1828L82.8163 15.3953C83.0219 15.6448 83.168 15.8921 83.2549 16.1371C83.3414 16.3818 83.3756 16.6199 83.3564 16.8505C83.3371 17.0814 83.2678 17.3028 83.1479 17.515C83.028 17.7273 82.8655 17.9303 82.6605 18.1244V18.1241ZM80.5467 17.5429C80.6891 17.6735 80.8228 17.7598 80.9484 17.8012C81.0741 17.8426 81.1952 17.8515 81.3113 17.8279C81.4278 17.8043 81.5399 17.7534 81.6483 17.6755C81.7567 17.5976 81.8677 17.505 81.9819 17.3972C82.0699 17.3141 82.1547 17.2194 82.2369 17.1142C82.3192 17.0087 82.3793 16.8931 82.4175 16.7674C82.4558 16.6418 82.4632 16.5112 82.4402 16.3758C82.4169 16.2404 82.3439 16.1015 82.2211 15.9586L80.547 17.5429H80.5467ZM81.5506 15.2696C81.3087 15.0729 81.0709 14.9924 80.8372 15.0289C80.6034 15.0651 80.3673 15.2023 80.1292 15.4398C80.0154 15.5477 79.9196 15.6566 79.842 15.7671C79.7646 15.8775 79.7114 15.9893 79.6829 16.1026C79.6545 16.2159 79.655 16.3341 79.6852 16.4569C79.7151 16.5797 79.7821 16.7091 79.8862 16.8451L81.5506 15.2699V15.2696ZM81.3475 20.2847L85.0356 17.4075L85.6722 18.2236L83.3618 20.0259L83.3742 20.0417L85.1469 19.8778L86.8791 19.7709L87.4042 20.444L83.7161 23.3209L83.0794 22.5048L85.3102 20.7646L85.2979 20.7485L84.0019 20.8903L81.9137 21.0105L81.3473 20.2847H81.3475ZM90.0202 24.5654L86.0742 27.0768L85.5259 26.2151L88.684 24.2051L88.096 23.2809L87.1548 23.8799C86.8523 24.0723 86.5556 24.2399 86.264 24.3831C85.9719 24.5252 85.6912 24.6137 85.4201 24.6468C85.1489 24.6798 84.8916 24.6445 84.6466 24.539C84.4016 24.4334 84.173 24.227 83.9622 23.9204L84.5951 23.3502C84.7374 23.4986 84.8798 23.5952 85.0224 23.6398C85.165 23.6844 85.3157 23.6895 85.4741 23.655C85.6326 23.6205 85.8022 23.5553 85.9825 23.4589C86.1628 23.3626 86.3647 23.2436 86.5878 23.1018L88.368 21.9689L90.0205 24.5657L90.0202 24.5654ZM89.4164 30.4667C89.0012 30.6778 88.6101 30.7146 88.2435 30.5769C87.8769 30.4391 87.577 30.1406 87.3432 29.6812L86.4509 27.926L90.6206 25.8062L91.0896 26.7289L89.49 27.5421L89.9193 28.3866C90.0412 28.6264 90.1134 28.8547 90.1358 29.0721C90.1583 29.2892 90.1427 29.4882 90.0887 29.6691C90.0349 29.8497 89.9492 30.0075 89.8319 30.1427C89.7146 30.2775 89.576 30.3859 89.4164 30.467V30.4667ZM88.9051 29.5503C89.021 29.4917 89.1035 29.3968 89.1527 29.2662C89.2019 29.1357 89.1769 28.9726 89.0774 28.7768L88.6602 27.9562L87.7437 28.4223L88.161 29.2429C88.2605 29.4385 88.3795 29.5541 88.5181 29.5891C88.6567 29.6245 88.7858 29.6113 88.9054 29.5506L88.9051 29.5503ZM89.1254 34.0142L90.9027 33.3186L90.3443 31.8915L88.567 32.5871L88.1897 31.6232L92.5455 29.9184L92.9227 30.8819L91.1768 31.5654L91.7352 32.9923L93.4812 32.309L93.8535 33.2602L89.4978 34.9651L89.1254 34.0139V34.0142ZM94.6451 36.0848C94.7219 36.3565 94.7467 36.6136 94.7193 36.8563C94.6923 37.099 94.6227 37.3187 94.5109 37.5156C94.3987 37.7123 94.2466 37.8823 94.054 38.0249C93.8616 38.1675 93.6402 38.2742 93.39 38.3446L92.3292 38.6437C92.0618 38.719 91.8074 38.7452 91.5661 38.7228C91.3246 38.7001 91.1057 38.6336 90.9096 38.5238C90.7135 38.4139 90.5436 38.2615 90.4004 38.0669C90.2569 37.8722 90.1476 37.641 90.0723 37.3739C89.9895 37.0806 89.965 36.8117 89.9987 36.5673C90.032 36.3226 90.1094 36.1055 90.2304 35.9155C90.3515 35.7254 90.5085 35.5646 90.702 35.4335C90.8955 35.3024 91.1086 35.2038 91.3415 35.1382L92.4023 34.8392C92.6352 34.7736 92.8672 34.7466 93.0984 34.7581C93.3299 34.7696 93.5467 34.8248 93.7492 34.9237C93.9516 35.0226 94.131 35.1675 94.2872 35.3588C94.4433 35.5497 94.5629 35.7918 94.6454 36.0851L94.6451 36.0848ZM93.7109 36.3376C93.6753 36.2113 93.6244 36.1093 93.5579 36.0305C93.4912 35.9505 93.415 35.8904 93.329 35.8496C93.2431 35.8088 93.1513 35.7846 93.0544 35.7792C92.9575 35.774 92.8638 35.784 92.7732 35.8093L91.5506 36.1541C91.4514 36.182 91.3608 36.224 91.2786 36.2798C91.1966 36.3356 91.1299 36.4043 91.0779 36.4842C91.0258 36.5642 90.991 36.6553 90.9738 36.7591C90.9562 36.8618 90.9651 36.9756 91.0005 37.1019C91.0689 37.3446 91.194 37.5116 91.3755 37.6025C91.5575 37.6945 91.7559 37.7095 91.9715 37.6488L93.1942 37.304C93.3926 37.2482 93.5456 37.1338 93.6525 36.9607C93.7601 36.7884 93.7793 36.5805 93.7109 36.3379V36.3376ZM94.5388 40.1599L90.8464 40.8147L90.6658 39.7956L95.2714 38.979L95.8485 42.2346L94.9353 42.3965L94.5388 40.1596V40.1599ZM96.0628 44.587C96.084 44.8685 96.0573 45.1253 95.9828 45.3579C95.9083 45.5905 95.7965 45.7921 95.6475 45.9629C95.4989 46.1337 95.316 46.2697 95.0989 46.3715C94.8818 46.4733 94.644 46.534 94.3849 46.5535L93.2859 46.6363C93.009 46.6573 92.7542 46.6326 92.5222 46.5624C92.2899 46.4926 92.0886 46.3842 91.9181 46.2375C91.7475 46.0909 91.6112 45.908 91.5094 45.6889C91.4074 45.4695 91.3461 45.2216 91.3251 44.9444C91.3021 44.6405 91.3315 44.3722 91.4126 44.1393C91.4939 43.9061 91.6127 43.7085 91.7688 43.5461C91.925 43.3839 92.111 43.2574 92.3264 43.1671C92.542 43.0768 92.7703 43.0225 93.0116 43.0043L94.1106 42.9215C94.3519 42.9031 94.5848 42.9227 94.8093 42.9799C95.0339 43.0371 95.2355 43.134 95.4143 43.2712C95.5932 43.4081 95.7404 43.5858 95.8554 43.804C95.9707 44.0223 96.0397 44.2831 96.0628 44.587ZM95.0969 44.6497C95.0871 44.5191 95.0575 44.409 95.0077 44.3184C94.9583 44.2267 94.8953 44.1528 94.8191 44.0956C94.7429 44.0386 94.6578 43.9967 94.5638 43.9722C94.4697 43.9478 94.376 43.9392 94.282 43.9463L93.0153 44.0418C92.9127 44.0496 92.8155 44.0729 92.7241 44.1111C92.6326 44.1494 92.5535 44.2037 92.4868 44.2718C92.4201 44.3397 92.3678 44.4222 92.3304 44.5206C92.2927 44.6178 92.2789 44.7311 92.289 44.8619C92.308 45.1132 92.3974 45.3018 92.5573 45.4269C92.7174 45.5529 92.9089 45.6069 93.1324 45.5902L94.399 45.4948C94.6046 45.4793 94.7771 45.3976 94.9163 45.2489C95.0555 45.1014 95.1159 44.9013 95.0969 44.65V44.6497ZM96.1364 51.2805C96.1151 51.562 96.0501 51.8122 95.9414 52.0307C95.8327 52.2493 95.6921 52.4319 95.5193 52.5785C95.3465 52.7249 95.1452 52.8321 94.9154 52.9003C94.6857 52.9684 94.4413 52.9926 94.1822 52.973L93.0832 52.8899C92.806 52.8689 92.5581 52.8065 92.339 52.7024C92.1199 52.5983 91.9373 52.4609 91.7907 52.2904C91.644 52.1199 91.5368 51.9186 91.4689 51.6865C91.401 51.4545 91.3775 51.2 91.3985 50.9228C91.4215 50.6189 91.4908 50.3581 91.6058 50.1398C91.7211 49.9216 91.868 49.7439 92.0469 49.607C92.2257 49.4698 92.4285 49.3729 92.655 49.316C92.8816 49.2591 93.1157 49.2395 93.3569 49.2579L94.4559 49.3407C94.6972 49.3588 94.9244 49.4132 95.138 49.5035C95.3514 49.5938 95.5363 49.72 95.6924 49.8822C95.8485 50.0443 95.9673 50.2422 96.0487 50.4751C96.1298 50.708 96.1591 50.9766 96.1361 51.2802L96.1364 51.2805ZM95.1719 51.1977C95.1817 51.0672 95.1691 50.9539 95.1337 50.8567C95.0983 50.7583 95.0474 50.6761 94.9807 50.6079C94.914 50.5401 94.8361 50.4857 94.7469 50.4478C94.6578 50.4095 94.5664 50.3868 94.4723 50.3799L93.2057 50.2842C93.103 50.2764 93.0035 50.2847 92.9072 50.3089C92.8112 50.333 92.7246 50.375 92.6484 50.432C92.5722 50.4892 92.5084 50.5628 92.4563 50.6545C92.4046 50.7451 92.3738 50.8549 92.364 50.9858C92.3451 51.2371 92.4052 51.4369 92.5446 51.5844C92.6838 51.7331 92.8652 51.8153 93.0887 51.8323L94.3553 51.9281C94.5609 51.9436 94.7435 51.889 94.9036 51.7627C95.0635 51.6376 95.153 51.449 95.1719 51.1977ZM91.2389 53.2982L95.8796 53.8837L95.4917 56.9576L94.5715 56.8414L94.8298 54.7943L93.9697 54.6859L93.8504 55.6328C93.8167 55.8997 93.7483 56.1291 93.6451 56.3215C93.5418 56.5139 93.417 56.6697 93.2712 56.789C93.1252 56.9084 92.9659 56.9909 92.7931 57.0369C92.6202 57.0826 92.4448 57.0944 92.2671 57.0723C91.8048 57.0139 91.4606 56.8247 91.2346 56.5052C91.0085 56.1855 90.9277 55.77 90.9921 55.2587L91.2394 53.2985L91.2389 53.2982ZM92.3577 56.027C92.4865 56.0431 92.6082 56.0112 92.722 55.9307C92.8359 55.8502 92.9069 55.7013 92.9342 55.4833L93.0496 54.5698L92.0293 54.4409L91.914 55.3545C91.8864 55.5724 91.9204 55.7346 92.0152 55.8413C92.1101 55.9483 92.2243 56.0101 92.3577 56.0268V56.027ZM91.255 57.7943L91.1724 58.1546C91.1494 58.255 91.154 58.3355 91.1862 58.3956C91.2185 58.4559 91.2676 58.512 91.3338 58.5638L91.41 58.6224L95.2473 58.033L94.9951 59.1334L93.6721 59.251L92.4888 59.3591L92.4814 59.3919L93.4806 59.9656L94.6497 60.6402L94.4053 61.7078L91.3697 59.7301C91.146 59.5823 90.9576 59.4471 90.8041 59.3246C90.6506 59.2021 90.5306 59.0782 90.4447 58.9528C90.3587 58.8275 90.3061 58.6958 90.2868 58.558C90.2678 58.4203 90.2788 58.2621 90.3199 58.083L90.4294 57.6048L91.255 57.794V57.7943ZM93.8113 63.4837L92.4607 63.0302C91.9934 62.8732 91.6828 63.0242 91.5287 63.4828C91.5115 63.5337 91.4962 63.5936 91.4824 63.6623C91.4689 63.731 91.4574 63.8003 91.4479 63.8705C91.4384 63.9406 91.4333 64.0085 91.4324 64.0743C91.4315 64.1402 91.4338 64.2 91.4393 64.2541L93.3377 64.8915L93.0145 65.8537L88.5805 64.3642L88.9057 63.3957L90.696 63.997C90.6681 63.8411 90.6701 63.6692 90.7026 63.4817C90.7348 63.2939 90.7788 63.1174 90.8346 62.9517C90.8944 62.7735 90.9758 62.6093 91.0779 62.4592C91.1802 62.3094 91.3059 62.1883 91.4548 62.0966C91.6038 62.0049 91.7772 61.9496 91.9747 61.931C92.1722 61.9123 92.3985 61.9459 92.6536 62.0313L94.1316 62.5279L93.8104 63.4834L93.8113 63.4837ZM88.2329 65.1486L92.5003 67.0637L91.1466 70.0803L90.3003 69.7005L91.2302 67.6281L90.3659 67.2402L89.5734 69.006L88.7579 68.64L89.5504 66.8742L88.6553 66.4725L87.7251 68.5448L86.8791 68.165L88.2329 65.1483V65.1486ZM85.3539 70.8739L87.0116 71.82L87.7713 70.4892L86.1136 69.5432L86.6266 68.6443L90.6891 70.9631L90.1761 71.862L88.5474 70.9326L87.788 72.2634L89.4164 73.1927L88.91 74.0798L84.8476 71.761L85.3539 70.8739ZM84.3711 72.4816L88.1926 75.1791L87.5957 76.0248L85.2018 74.3349L85.19 74.3515L85.8603 76.0009L86.4639 77.6281L85.9716 78.3254L82.1504 75.628L82.7473 74.7823L85.0586 76.4141L85.0704 76.3977L84.5597 75.1981L83.8403 73.2341L84.3711 72.4819V72.4816Z" transform="translate(4.427 3.75415)" fill="#23376C"/>
<path fill-rule="evenodd" clip-rule="evenodd" d="M3.5466 5.85733L0 2.8076L0.674871 2.02289L2.10685 3.25416L2.41367 2.8976C2.46916 2.83319 2.51258 2.76534 2.54364 2.69489C2.57469 2.62415 2.58936 2.54508 2.58763 2.45795C2.58591 2.37082 2.56491 2.27305 2.52523 2.16493C2.48526 2.05653 2.42373 1.93432 2.34034 1.79745L1.70486 0.825546L2.41482 0L3.16617 1.11568C3.25934 1.25485 3.33094 1.40524 3.38126 1.56655C3.43158 1.72816 3.41749 1.89895 3.33899 2.07953C3.45717 2.00391 3.57967 1.95416 3.70647 1.9303C3.83328 1.90643 3.96038 1.905 4.08747 1.92541C4.21457 1.94612 4.33678 1.98608 4.45381 2.0456C4.57113 2.10513 4.68068 2.17874 4.78247 2.26644C4.95241 2.41251 5.07721 2.57296 5.15715 2.74808C5.23708 2.9232 5.27763 3.10119 5.27849 3.28234C5.27935 3.46321 5.2437 3.64379 5.17152 3.82408C5.09935 4.00409 4.99612 4.17259 4.86184 4.32872L3.54717 5.85733H3.5466ZM4.05038 3.05546C3.91782 2.9416 3.78757 2.90911 3.65932 2.95857C3.53136 3.00802 3.4057 3.10406 3.28321 3.24669L2.77942 3.8327L3.5233 4.4725L4.04923 3.86117C4.17489 3.7151 4.23958 3.57277 4.24361 3.43417C4.24735 3.29557 4.18294 3.16933 4.05067 3.05546H4.05038Z" transform="translate(83.7583 79.8191)" fill="#23376C"/>
</svg>
