<svg width="137" height="46" viewBox="0 0 137 46" fill="none" xmlns="http://www.w3.org/2000/svg">
<path fill-rule="evenodd" clip-rule="evenodd" d="M73.6976 27.3294L77.8462 7.87129H80.384C81.3196 7.85503 82.084 7.99354 82.6779 8.27873C83.2636 8.55575 83.6785 9.05275 83.9225 9.76179C84.1665 10.4705 84.2398 11.4647 84.1422 12.7358C84.0526 14.0069 83.7923 15.6285 83.3614 17.6004C82.9545 19.5559 82.5233 21.1693 82.0759 22.4404C81.6287 23.7115 81.1324 24.7056 80.5875 25.4146C80.0424 26.1315 79.408 26.6286 78.7002 26.9137C77.9926 27.199 77.171 27.3375 76.2355 27.3294H73.6976H73.6976ZM22.5974 8.80016L22.8901 21.9027H16.5941L22.402 8.80016H22.5973H22.5974ZM17.755 7.68067e-05C17.7483 7.68067e-05 17.6872 0.145446 17.5712 0.421848C17.5056 0.431483 17.4726 0.437264 17.4726 0.440116L0 34.7605C0 34.7686 0.195141 34.8011 0.585648 34.8744C0.976002 34.9478 1.53741 35.0131 2.27756 35.0863C3.0178 35.1597 3.9207 35.1922 4.97811 35.2004C6.04375 35.1922 6.96296 35.1597 7.74382 35.0863C8.52468 35.0131 9.12664 34.9478 9.54962 34.8744C9.98083 34.8011 10.1923 34.7686 10.2004 34.7605L13.08 28.8937H23.3782L23.8176 34.7605C23.8176 34.7686 24.0128 34.8011 24.3951 34.8744C24.7774 34.9478 25.3387 35.0131 26.0871 35.0863C26.8354 35.1597 27.7547 35.1922 28.8445 35.2004C30.016 35.1922 31.0085 35.1597 31.8218 35.0863C32.6352 35.0131 33.2533 34.9478 33.6764 34.8744C34.0994 34.8011 34.3109 34.7686 34.3109 34.7605L32.1245 8.70243H45.0482L39.533 34.7605C39.5412 34.7686 39.7527 34.8011 40.1675 34.8744C40.5906 34.9478 41.1923 35.0131 41.9733 35.0863C42.7461 35.1597 43.6736 35.1922 44.7554 35.2004C45.7558 35.1922 46.6669 35.1597 47.4804 35.0863C48.2939 35.0131 48.9445 34.9478 49.4327 34.8744C49.9125 34.8011 50.1647 34.7686 50.173 34.7605L55.6881 8.70243H67.0196L61.3983 35.2005H74.5761C77.2768 35.2087 79.6925 34.9235 81.8157 34.3368C83.9307 33.7502 85.7854 32.8049 87.3715 31.4931C88.9577 30.1812 90.2999 28.4375 91.398 26.2701C92.4962 24.1027 93.3828 21.4382 94.0498 18.2848C94.9609 14.0722 95.1318 10.6172 94.5623 7.91207C93.9849 5.2151 92.6589 3.2187 90.5765 1.9231C88.5021 0.635586 85.6551 -0.00809347 82.0433 7.68067e-05H73.758H68.8659H24.5496H17.7551H17.755Z" transform="translate(31.2451 4.30078)" fill="#394B92"/>
<path fill-rule="evenodd" clip-rule="evenodd" d="M0 3.48687H2.29672C2.32358 3.42436 2.34805 3.36039 2.37167 3.29318C2.39537 3.22681 2.4143 3.15952 2.4293 3.09308C2.44354 3.02356 2.45385 2.9555 2.46001 2.88913C2.46647 2.82277 2.46716 2.75949 2.46247 2.69937H1.19807L1.74739 0.114014C1.74655 0.113243 1.72447 0.110081 1.68114 0.10299C1.63767 0.0958989 1.57765 0.0895773 1.50109 0.0824861C1.4246 0.0753179 1.33627 0.072237 1.23593 0.0713121C1.1372 0.0721599 1.04887 0.0753179 0.970768 0.0824861C0.892666 0.0895773 0.830184 0.0958989 0.784554 0.10299C0.739463 0.110158 0.71584 0.113243 0.71507 0.114014L7.70224e-05 3.48687H0ZM3.68231 3.44417C3.68316 3.44494 3.70362 3.4481 3.74387 3.4552C3.78496 3.46236 3.84336 3.46861 3.91923 3.47577C3.99418 3.48294 4.08405 3.48602 4.18916 3.48679C4.28627 3.48602 4.3746 3.48287 4.45355 3.47577C4.5325 3.46861 4.59567 3.46236 4.643 3.4552C4.68963 3.44803 4.71394 3.44494 4.71479 3.44417L5.42032 0.114014C5.41963 0.113243 5.39754 0.110081 5.35407 0.10299C5.31075 0.0958989 5.2508 0.0895773 5.17424 0.0824861C5.0976 0.0753179 5.00927 0.072237 4.90901 0.0713121C4.81036 0.0721599 4.72202 0.0753179 4.64377 0.0824861C4.56567 0.0895773 4.50342 0.0958989 4.45763 0.10299C4.41262 0.110158 4.38899 0.113243 4.38799 0.114014L3.68239 3.44417H3.68231ZM9.15965 0.114014C9.09093 0.239728 9.02145 0.36706 8.94966 0.496706C8.87856 0.626351 8.80992 0.755997 8.74283 0.884177C8.6758 1.0122 8.61417 1.13637 8.55815 1.25731C8.50129 1.38056 8.45243 1.49456 8.41134 1.59808C8.37117 1.70236 8.34116 1.7957 8.32146 1.87871H8.30246C8.31515 1.7688 8.32385 1.64 8.32862 1.49047C8.33331 1.34109 8.32777 1.17507 8.31207 0.991545L8.22204 0.113935C8.22204 0.113164 8.20081 0.110006 8.15726 0.102915C8.11393 0.0958237 8.04768 0.0895021 7.9585 0.0824109C7.86847 0.0752426 7.75482 0.072158 7.61586 0.071233C7.57161 0.071233 7.5149 0.0712327 7.44303 0.0728514C7.37201 0.07447 7.2946 0.0776316 7.21104 0.0838749C7.12647 0.0901953 7.04437 0.099677 6.96227 0.113859L6.25674 3.44402C6.25674 3.44479 6.27405 3.44795 6.30875 3.45504C6.34353 3.46221 6.39393 3.46845 6.46026 3.47562C6.52651 3.48279 6.60708 3.48587 6.70188 3.48664C6.7926 3.48587 6.87078 3.48271 6.93695 3.47562C7.0032 3.46845 7.05545 3.46221 7.09161 3.45504C7.12793 3.44787 7.14609 3.44479 7.14694 3.44402L7.34108 2.53319C7.36716 2.40516 7.39001 2.27628 7.4091 2.14656C7.4288 2.01692 7.44457 1.89275 7.45711 1.77505C7.46981 1.65797 7.48012 1.55206 7.48789 1.45956C7.49497 1.36707 7.50128 1.29362 7.50451 1.23905C7.50836 1.18447 7.51082 1.15603 7.51144 1.1528H7.54468C7.54383 1.15441 7.54152 1.17576 7.53906 1.21608C7.53591 1.25647 7.53352 1.31019 7.53037 1.37825C7.52806 1.44538 7.52644 1.5213 7.5256 1.60509C7.5256 1.68895 7.52644 1.77512 7.53037 1.86361C7.53352 1.95217 7.53991 2.03834 7.5493 2.12051C7.56353 2.24622 7.577 2.37194 7.58877 2.49765C7.60147 2.62329 7.61332 2.74908 7.62517 2.87479C7.62517 2.87557 7.63925 2.8795 7.66934 2.88659C7.69927 2.89453 7.74674 2.90239 7.81146 2.90956C7.87532 2.9175 7.95827 2.92135 8.06092 2.9222C8.16187 2.92135 8.24636 2.91742 8.31346 2.90956C8.38048 2.90239 8.43111 2.89453 8.46504 2.88659C8.4989 2.87942 8.51545 2.87557 8.51545 2.87479L8.94173 2.08729C8.98113 2.01537 9.01906 1.93783 9.05692 1.85636C9.09563 1.77412 9.13118 1.6928 9.16511 1.61287C9.19904 1.53225 9.22982 1.45872 9.2566 1.39158C9.28346 1.32429 9.30546 1.26895 9.32216 1.22633C9.33955 1.1844 9.34986 1.15919 9.35363 1.1528H9.38688C9.38526 1.15364 9.37502 1.18201 9.35525 1.23666C9.3347 1.29123 9.30946 1.36553 9.27799 1.45956C9.24637 1.55368 9.21243 1.66035 9.17604 1.77898C9.13902 1.8976 9.10356 2.0217 9.06801 2.15134C9.0333 2.28022 9.0016 2.40755 8.97482 2.53319L8.78068 3.44402C8.78068 3.44479 8.79877 3.44795 8.83516 3.45504C8.87148 3.46221 8.92435 3.46845 8.9946 3.47562C9.06477 3.48279 9.15172 3.48587 9.2543 3.48664C9.3561 3.48587 9.44289 3.48271 9.51545 3.47562C9.58809 3.46845 9.64411 3.46221 9.68274 3.45504C9.72221 3.44787 9.74114 3.44479 9.74199 3.44402L10.4476 0.113859C10.4065 0.10515 10.3553 0.098905 10.2945 0.0933554C10.2338 0.0878057 10.1707 0.0831022 10.1035 0.079942C10.0372 0.0767047 9.97406 0.0743947 9.91566 0.0727761C9.85648 0.0720053 9.80839 0.0711578 9.77038 0.0711578C9.63626 0.0720056 9.52346 0.0751636 9.43351 0.0823318C9.34271 0.089423 9.27399 0.0957446 9.22828 0.102836C9.18235 0.110004 9.15965 0.113089 9.15965 0.113859V0.114014ZM11.2841 3.44417C11.2848 3.44494 11.3053 3.4481 11.3456 3.4552C11.3867 3.46236 11.4451 3.46861 11.5209 3.47577C11.5959 3.48294 11.6858 3.48602 11.7909 3.48679C11.888 3.48602 11.9762 3.48287 12.0553 3.47577C12.1342 3.46861 12.1974 3.46236 12.2447 3.4552C12.2913 3.44803 12.3156 3.44494 12.3165 3.44417L13.022 0.114014C13.0213 0.113243 12.9992 0.110081 12.9558 0.10299C12.9124 0.0958989 12.8525 0.0895773 12.7759 0.0824861C12.6994 0.0753179 12.611 0.072237 12.5107 0.0713121C12.4121 0.0721599 12.3237 0.0753179 12.2455 0.0824861C12.1674 0.0895773 12.1051 0.0958989 12.0593 0.10299C12.0142 0.110158 11.9907 0.113243 11.9897 0.114014L11.2842 3.44417H11.2841ZM14.4314 0.0713121C14.4305 0.0713121 14.4226 0.0894996 14.4084 0.124262C14.3934 0.159101 14.3761 0.208894 14.3548 0.272946C14.3343 0.336998 14.3138 0.413691 14.294 0.503025C14.2774 0.584419 14.2655 0.655565 14.26 0.717304C14.2537 0.778967 14.2507 0.827138 14.2507 0.862748C14.2507 0.89751 14.2507 0.914853 14.2514 0.915701H15.066L14.5309 3.4441C14.5316 3.44487 14.5521 3.44802 14.5924 3.45512C14.6335 3.46228 14.6918 3.46853 14.7676 3.4757C14.8426 3.48286 14.9325 3.48595 15.0376 3.48672C15.1347 3.48595 15.223 3.48279 15.302 3.4757C15.381 3.46853 15.4442 3.46228 15.4914 3.45512C15.538 3.44795 15.5624 3.44487 15.5633 3.4441L16.0984 0.915701H16.8892C16.8901 0.914853 16.8979 0.895892 16.9129 0.859511C16.9286 0.823207 16.9468 0.773416 16.9682 0.710135C16.9887 0.646853 17.0083 0.574941 17.0266 0.493469C17.0431 0.408837 17.0549 0.335303 17.0605 0.272099C17.0668 0.208818 17.0699 0.159875 17.0699 0.125112C17.0699 0.0895023 17.0699 0.0721599 17.0691 0.0713121H14.4314ZM18.4643 0.0713121L17.7397 3.48679H20.0743C20.1004 3.44093 20.124 3.38559 20.1454 3.32C20.1666 3.2551 20.1856 3.18396 20.2021 3.10726C20.2188 3.03296 20.2298 2.96343 20.2346 2.89938C20.2401 2.83448 20.2401 2.78076 20.2353 2.73736H18.933L19.0608 2.12536H20.0791C20.0948 2.09538 20.1098 2.0637 20.124 2.02971C20.1383 1.99495 20.1516 1.95541 20.165 1.91109C20.1793 1.86677 20.1927 1.81466 20.207 1.75531C20.2227 1.66922 20.2323 1.59715 20.2353 1.54103C20.2384 1.48492 20.2384 1.4359 20.2353 1.39482H19.2171L19.3355 0.820818H20.5906C20.6151 0.778887 20.6388 0.724315 20.6624 0.656409C20.686 0.588427 20.7057 0.513199 20.7231 0.431882C20.7398 0.355189 20.7492 0.284816 20.7531 0.221535C20.7571 0.158254 20.7563 0.107693 20.7515 0.0713121H18.4643ZM22.2413 0.0713121L21.5168 3.48679H22.7953C23.0574 3.48756 23.2919 3.45989 23.4978 3.40293C23.7031 3.34605 23.883 3.25433 24.0368 3.12707C24.1908 2.99982 24.321 2.83063 24.4274 2.62028C24.5342 2.41001 24.62 2.15149 24.6849 1.84549C24.7732 1.43683 24.7898 1.10154 24.7345 0.839086C24.6784 0.577406 24.5499 0.38363 24.3478 0.257993C24.1466 0.133127 23.8703 0.0706166 23.5199 0.0713873H22.2411L22.2413 0.0713121ZM22.7101 2.72303L23.1127 0.835003H23.3589C23.4497 0.833461 23.5239 0.846872 23.5816 0.874543C23.6384 0.901443 23.6786 0.949693 23.7021 1.01845C23.7258 1.0872 23.7329 1.18362 23.7236 1.30703C23.7148 1.43027 23.6897 1.58767 23.6477 1.77898C23.6083 1.96874 23.5665 2.12529 23.5231 2.24861C23.4797 2.37186 23.4316 2.46836 23.3787 2.53719C23.3259 2.60672 23.2642 2.65497 23.1956 2.68264C23.1269 2.71024 23.0472 2.72372 22.9564 2.72295H22.7102L22.7101 2.72303ZM28.1685 3.48679H30.4652C30.4921 3.42428 30.5164 3.36031 30.5401 3.2931C30.5639 3.22673 30.5828 3.15944 30.5979 3.093C30.6119 3.02348 30.6222 2.95542 30.6286 2.88906C30.6349 2.82269 30.6356 2.75941 30.6309 2.69929H29.3665L29.9158 0.113935C29.9151 0.113164 29.893 0.110006 29.8496 0.102915C29.8061 0.0958237 29.7462 0.0895021 29.6696 0.0824109C29.593 0.0752426 29.5047 0.072158 29.4045 0.071233C29.3057 0.0720809 29.2173 0.0752426 29.1392 0.0824109C29.0611 0.0895021 28.9987 0.0958237 28.9529 0.102915C28.908 0.110083 28.8844 0.113164 28.8835 0.113935L28.1685 3.48679H28.1685ZM31.8509 3.4441C31.8516 3.44487 31.8721 3.44802 31.9124 3.45512C31.9535 3.46228 32.0118 3.46853 32.0876 3.4757C32.1626 3.48286 32.2525 3.48595 32.3576 3.48672C32.4547 3.48595 32.543 3.48279 32.6219 3.4757C32.701 3.46853 32.7641 3.46228 32.8114 3.45512C32.8581 3.44795 32.8825 3.44487 32.8832 3.4441L33.5888 0.113935C33.5879 0.113164 33.5659 0.110006 33.5224 0.102915C33.4791 0.0958237 33.419 0.0895021 33.3426 0.0824109C33.266 0.0752426 33.1777 0.072158 33.0774 0.071233C32.9787 0.0720809 32.8904 0.0752426 32.8122 0.0824109C32.7341 0.0895021 32.6717 0.0958237 32.626 0.102915C32.5809 0.110083 32.5573 0.113164 32.5564 0.113935L31.8509 3.4441ZM35.8694 0.113935L34.1741 3.4441C34.1741 3.44487 34.193 3.44802 34.2309 3.45512C34.2687 3.46228 34.3233 3.46853 34.395 3.4757C34.4668 3.48286 34.5544 3.48595 34.657 3.48672C34.7603 3.48595 34.8496 3.48279 34.9254 3.4757C35.0011 3.46853 35.0595 3.46228 35.1006 3.45512C35.1425 3.44795 35.1631 3.44487 35.1637 3.4441L35.4431 2.87487H36.4424L36.485 3.4441C36.485 3.44487 36.5039 3.44802 36.541 3.45512C36.5782 3.46228 36.6326 3.46853 36.7052 3.4757C36.7777 3.48286 36.8669 3.48595 36.9727 3.48672C37.0864 3.48595 37.1827 3.48279 37.2616 3.4757C37.3407 3.46853 37.4006 3.46228 37.4417 3.45512C37.4827 3.44795 37.5033 3.44487 37.5033 3.4441L37.2238 0.113935C37.2247 0.113164 37.201 0.110006 37.1551 0.102915C37.1087 0.0958237 37.0359 0.0895021 36.9374 0.0824109C36.8396 0.0752426 36.7116 0.072158 36.5561 0.071233C36.4062 0.0720809 36.2799 0.0752426 36.1781 0.0824109C36.0763 0.0895021 35.9997 0.0958237 35.9477 0.102915C35.8955 0.110083 35.8695 0.113164 35.8695 0.113935H35.8694ZM36.3667 0.925106C36.3667 0.925954 36.3644 0.942526 36.3603 0.974899C36.3563 1.00727 36.3525 1.05159 36.3485 1.1077C36.3445 1.16389 36.3413 1.22872 36.3407 1.30148C36.3398 1.37416 36.3423 1.45085 36.3477 1.53233L36.3951 2.19643H35.7843L36.1204 1.53233C36.1591 1.45085 36.193 1.37416 36.2222 1.30148C36.2507 1.22872 36.2744 1.16389 36.2926 1.1077C36.3115 1.05159 36.3249 1.00727 36.3343 0.974899C36.343 0.942526 36.3477 0.925954 36.3477 0.925106H36.3667ZM39.5044 0.071233L38.78 3.48672H40.2953C40.5463 3.48749 40.7656 3.45589 40.9534 3.39184C41.1412 3.32701 41.2951 3.22342 41.4159 3.08029C41.5368 2.93723 41.6227 2.749 41.6734 2.51423C41.701 2.3798 41.7049 2.26202 41.6852 2.16005C41.6654 2.05885 41.626 1.9719 41.5667 1.89999C41.5076 1.82885 41.4326 1.77111 41.3418 1.72679C41.4326 1.68093 41.5147 1.62405 41.5888 1.55684C41.6631 1.48886 41.7263 1.40985 41.7782 1.31813C41.8311 1.2264 41.8699 1.12281 41.8959 1.00581C41.9615 0.691172 41.9173 0.456315 41.7648 0.302159C41.6118 0.147925 41.3577 0.0704623 41.0009 0.071233H39.5044ZM40.2527 1.39474L40.3853 0.77334H40.6788C40.7609 0.772569 40.82 0.796306 40.8564 0.845251C40.8935 0.894272 40.9006 0.973281 40.8778 1.08165C40.8532 1.18841 40.8121 1.26664 40.7547 1.31813C40.6971 1.36946 40.6275 1.39482 40.5464 1.39482H40.2528L40.2527 1.39474ZM39.9544 2.78462L40.0964 2.12529H40.3995C40.4682 2.12452 40.5242 2.134 40.5692 2.15304C40.6135 2.17277 40.6432 2.20599 40.6591 2.25424C40.6749 2.30172 40.6733 2.36809 40.6551 2.45272C40.6377 2.53573 40.6109 2.60209 40.5739 2.65042C40.5376 2.69937 40.4925 2.7342 40.4396 2.75471C40.3861 2.77529 40.3252 2.78554 40.2573 2.78469H39.9543L39.9544 2.78462ZM42.8886 3.44402C42.8893 3.44479 42.9098 3.44795 42.9501 3.45504C42.9912 3.46221 43.0496 3.46845 43.1253 3.47562C43.2003 3.48279 43.2903 3.48587 43.3953 3.48664C43.4924 3.48587 43.5807 3.48271 43.6596 3.47562C43.7386 3.46845 43.8018 3.46221 43.8491 3.45504C43.8957 3.44787 43.9202 3.44479 43.9209 3.44402L44.6266 0.113859C44.6257 0.113089 44.6036 0.109927 44.5603 0.102836C44.5168 0.0957446 44.4568 0.089423 44.3803 0.0823318C44.3038 0.0751636 44.2154 0.0720827 44.1152 0.0711578C44.0164 0.0720056 43.928 0.0751636 43.8499 0.0823318C43.7718 0.089423 43.7094 0.0957446 43.6637 0.102836C43.6186 0.110004 43.595 0.113089 43.5942 0.113859L42.8886 3.44402H42.8886ZM45.4534 3.48672H47.7501C47.7769 3.42421 47.8013 3.36023 47.825 3.29302C47.8487 3.22666 47.8677 3.15937 47.8827 3.09293C47.8968 3.0234 47.9071 2.95534 47.9134 2.88898C47.9198 2.82262 47.9205 2.75933 47.9158 2.69921H46.6514L47.2008 0.113859C47.1999 0.113089 47.1778 0.109927 47.1345 0.102836C47.091 0.0957446 47.031 0.089423 46.9545 0.0823318C46.878 0.0751636 46.7896 0.0720827 46.6894 0.0711578C46.5906 0.0720056 46.5022 0.0751636 46.4241 0.0823318C46.346 0.089423 46.2836 0.0957446 46.2378 0.102836C46.1928 0.110004 46.1692 0.113089 46.1684 0.113859L45.4534 3.48672H45.4534ZM49.1357 3.44402C49.1364 3.44479 49.157 3.44795 49.1972 3.45504C49.2383 3.46221 49.2967 3.46845 49.3726 3.47562C49.4475 3.48279 49.5374 3.48587 49.6425 3.48664C49.7396 3.48587 49.8279 3.48271 49.9069 3.47562C49.9859 3.46845 50.049 3.46221 50.0964 3.45504C50.143 3.44787 50.1673 3.44479 50.1682 3.44402L50.8737 0.113859C50.873 0.113089 50.8509 0.109927 50.8074 0.102836C50.7641 0.0957446 50.7042 0.089423 50.6276 0.0823318C50.551 0.0751636 50.4626 0.0720827 50.3624 0.0711578C50.2637 0.0720056 50.1754 0.0751636 50.0971 0.0823318C50.019 0.089423 49.9568 0.0957446 49.911 0.102836C49.866 0.110004 49.8424 0.113089 49.8414 0.113859L49.1358 3.44402H49.1357ZM52.2831 0.0711578C52.2822 0.0711578 52.2743 0.0893491 52.26 0.124111C52.2451 0.158951 52.2277 0.20874 52.2065 0.272792C52.1859 0.336843 52.1655 0.413537 52.1456 0.50287C52.1291 0.584265 52.1173 0.65541 52.1117 0.71715C52.1055 0.778812 52.1024 0.826983 52.1024 0.862593C52.1024 0.897356 52.1024 0.914699 52.1031 0.915547H52.9176L52.3825 3.44394C52.3832 3.44471 52.4038 3.44787 52.4441 3.45496C52.4852 3.46213 52.5435 3.46837 52.6193 3.47554C52.6943 3.48271 52.7842 3.48579 52.8893 3.48656C52.9864 3.48579 53.0747 3.48263 53.1537 3.47554C53.2327 3.46837 53.2958 3.46213 53.3431 3.45496C53.3897 3.44779 53.4141 3.44471 53.4149 3.44394L53.95 0.915547H54.7408C54.7417 0.914699 54.7496 0.895737 54.7645 0.859357C54.7804 0.823053 54.7985 0.773261 54.8198 0.70998C54.8404 0.646699 54.86 0.574786 54.8783 0.493315C54.8948 0.408683 54.9067 0.335149 54.9122 0.271945C54.9185 0.208664 54.9216 0.15972 54.9216 0.124958C54.9216 0.089348 54.9216 0.0720056 54.9208 0.0711578H52.2831ZM58.2055 0.113859L57.4666 1.1575L57.1825 0.113859C57.1817 0.113089 57.1604 0.109927 57.1178 0.102836C57.0752 0.0957446 57.0135 0.089423 56.9347 0.0823318C56.8556 0.0751636 56.7618 0.0720827 56.6521 0.0711578C56.5242 0.0720056 56.4153 0.0751636 56.3253 0.0823318C56.2361 0.089423 56.1683 0.0957446 56.1216 0.102836C56.0744 0.110004 56.0508 0.113089 56.0508 0.113859L56.6806 2.25802L56.4296 3.44402C56.4287 3.44479 56.4461 3.44795 56.4808 3.45504C56.5156 3.46221 56.57 3.46845 56.645 3.47562C56.7191 3.48279 56.8171 3.48587 56.9362 3.48664C57.0482 3.48587 57.1439 3.48271 57.222 3.47562C57.3002 3.46845 57.3593 3.46221 57.4004 3.45504C57.4414 3.44787 57.4619 3.44479 57.4619 3.44402L57.7082 2.27235L59.2805 0.113935C59.2805 0.113164 59.2591 0.110006 59.2173 0.102915C59.1763 0.0958237 59.1162 0.0895021 59.0373 0.0824109C58.9584 0.0752426 58.862 0.072158 58.75 0.071233C58.6449 0.0720809 58.5519 0.0752426 58.4698 0.0824109C58.3884 0.0895021 58.3238 0.0958237 58.2772 0.102915C58.2298 0.110083 58.2061 0.113164 58.2055 0.113935V0.113859ZM62.3471 1.6888C62.287 1.979 62.2673 2.23906 62.2879 2.46913C62.3084 2.69921 62.3692 2.8953 62.4696 3.05739C62.5706 3.21941 62.7093 3.34281 62.8885 3.42814C63.0678 3.51424 63.2848 3.55702 63.5405 3.55779C63.7166 3.55702 63.8714 3.54515 64.0024 3.52457C64.1341 3.50321 64.2438 3.4787 64.3307 3.45111C64.4183 3.42336 64.4839 3.39893 64.5272 3.37757C64.5707 3.35622 64.592 3.34512 64.592 3.34435C64.6125 3.25664 64.6195 3.17124 64.6149 3.08746C64.6093 3.00359 64.5912 2.92613 64.5612 2.85499C64.5313 2.78384 64.4895 2.72218 64.4358 2.67077C64.4349 2.67162 64.4193 2.67717 64.3876 2.68742C64.3561 2.69767 64.3134 2.70954 64.2597 2.72295C64.206 2.73636 64.1453 2.74831 64.0782 2.75856C64.0104 2.76881 63.9401 2.77436 63.8675 2.77514C63.7538 2.77591 63.6592 2.7601 63.5833 2.72696C63.5077 2.69374 63.4515 2.64001 63.4144 2.56409C63.3765 2.48817 63.3585 2.38697 63.36 2.25894C63.3615 2.13084 63.3821 1.97267 63.4224 1.78376C63.4626 1.59476 63.5092 1.43582 63.5621 1.30703C63.615 1.17815 63.6757 1.07533 63.746 0.998639C63.8154 0.921946 63.8952 0.865833 63.9843 0.832613C64.0743 0.798621 64.1754 0.78205 64.2891 0.78282C64.3829 0.783668 64.4673 0.791607 64.5407 0.80579C64.615 0.82082 64.6734 0.835001 64.716 0.849338C64.7587 0.864291 64.7808 0.87146 64.7814 0.873079C64.8999 0.788447 64.9938 0.690401 65.0648 0.577404C65.135 0.46356 65.1848 0.342548 65.2125 0.213673C65.2125 0.212132 65.195 0.201034 65.1587 0.180531C65.1225 0.159181 65.0672 0.134592 64.993 0.106998C64.918 0.0792502 64.8225 0.0548161 64.7073 0.0334655C64.5913 0.0121149 64.4532 0.00109226 64.2937 0.000244403C63.9519 -0.000526379 63.6505 0.0595938 63.3892 0.180606C63.128 0.301542 62.9093 0.48738 62.7343 0.736419C62.5589 0.986229 62.4304 1.30402 62.3474 1.6891L62.3471 1.6888ZM66.077 1.66983C66.0121 1.98053 65.9916 2.25408 66.0145 2.48894C66.0375 2.72457 66.0997 2.92135 66.2023 3.07951C66.3051 3.23845 66.4431 3.35777 66.6176 3.43762C66.7921 3.51755 66.9988 3.55786 67.2371 3.55786C67.4738 3.55863 67.6925 3.53012 67.8921 3.47254C68.0919 3.41481 68.271 3.32069 68.4297 3.19105C68.5883 3.06217 68.7248 2.89068 68.8386 2.67717C68.9531 2.46366 69.0422 2.20275 69.1077 1.89282C69.1734 1.58212 69.1945 1.30857 69.1724 1.07294C69.1497 0.836541 69.0866 0.639686 68.9839 0.47998C68.8813 0.321045 68.7423 0.201726 68.5679 0.121025C68.3927 0.0404015 68.1859 1.48242e-05 67.9476 1.48242e-05C67.7091 -0.000755957 67.4905 0.028531 67.291 0.0878041C67.0912 0.147848 66.9129 0.242734 66.755 0.373998C66.5972 0.505185 66.4607 0.677608 66.3469 0.890267C66.2332 1.10377 66.1433 1.36383 66.077 1.66983ZM68.0375 1.7789C67.9941 1.9837 67.9492 2.15288 67.9034 2.28569C67.8575 2.41849 67.8086 2.52209 67.7566 2.59639C67.7044 2.66992 67.6477 2.7221 67.5853 2.75139C67.5237 2.78138 67.455 2.79571 67.3793 2.7941C67.3059 2.79571 67.2444 2.78146 67.1954 2.75139C67.1465 2.72218 67.111 2.66992 67.0896 2.59639C67.0684 2.52209 67.0628 2.41849 67.0724 2.28569C67.0818 2.15288 67.1086 1.9837 67.1521 1.7789C67.1971 1.57256 67.2428 1.4026 67.2894 1.2698C67.3369 1.13691 67.3866 1.03332 67.4386 0.959791C67.4906 0.886336 67.5475 0.834925 67.609 0.805635C67.6698 0.776423 67.7369 0.762164 67.8102 0.763705C67.8861 0.762164 67.9493 0.776346 67.999 0.805635C68.0487 0.834848 68.0842 0.886336 68.1054 0.959791C68.126 1.03332 68.1315 1.13691 68.1205 1.2698C68.1103 1.4026 68.0826 1.57256 68.0375 1.7789ZM73.1074 0.113859C73.0388 0.239574 72.9693 0.366906 72.8975 0.496551C72.8265 0.626197 72.7578 0.755842 72.6907 0.884023C72.6238 1.01205 72.5621 1.13622 72.506 1.25716C72.4492 1.38041 72.4003 1.49441 72.3592 1.59792C72.319 1.70221 72.2891 1.79555 72.2693 1.87856H72.2503C72.263 1.76865 72.2717 1.63985 72.2765 1.49032C72.2812 1.34094 72.2756 1.17491 72.2599 0.991391L72.1699 0.11378C72.1699 0.11301 72.1487 0.109852 72.1051 0.102761C72.0618 0.0956694 71.9956 0.0893477 71.9064 0.0822566C71.8164 0.0750883 71.7027 0.0720037 71.5637 0.0710787C71.5195 0.0710787 71.4628 0.0710784 71.3909 0.0726971C71.3199 0.0743157 71.2426 0.0774773 71.1589 0.0837206C71.0743 0.090041 70.9922 0.0995227 70.9101 0.113705L70.2046 3.44386C70.2046 3.44463 70.222 3.4478 70.2566 3.45489C70.2914 3.46205 70.3418 3.4683 70.4081 3.47547C70.4744 3.48263 70.5549 3.48572 70.6497 3.48649C70.7405 3.48572 70.8186 3.48256 70.8848 3.47547C70.9511 3.4683 71.0033 3.46205 71.0395 3.45489C71.0758 3.44772 71.094 3.44463 71.0947 3.44386L71.289 2.53303C71.315 2.405 71.3379 2.27613 71.357 2.14641C71.3766 2.01676 71.3924 1.89259 71.405 1.77489C71.4176 1.65781 71.4279 1.5519 71.4358 1.45941C71.4428 1.36692 71.4492 1.29346 71.4524 1.23889C71.4562 1.18432 71.4587 1.15588 71.4593 1.15264H71.4925C71.4918 1.15426 71.4894 1.17561 71.4869 1.21592C71.4838 1.25631 71.4815 1.31003 71.4782 1.37809C71.4759 1.44523 71.4743 1.52115 71.4735 1.60493C71.4735 1.68879 71.4743 1.77497 71.4782 1.86345C71.4815 1.95202 71.4878 2.03819 71.4972 2.12036C71.5114 2.24607 71.5247 2.37179 71.5366 2.4975C71.5493 2.62314 71.5612 2.74893 71.573 2.87464C71.573 2.87541 71.5872 2.87934 71.6172 2.88644C71.6471 2.89437 71.6946 2.90224 71.7593 2.9094C71.8232 2.91734 71.9061 2.9212 72.0088 2.92205C72.1098 2.9212 72.1942 2.91727 72.2613 2.9094C72.3283 2.90224 72.379 2.89437 72.4129 2.88644C72.4468 2.87927 72.4633 2.87541 72.4633 2.87464L72.8896 2.08713C72.9291 2.01522 72.9669 1.93768 73.0048 1.85621C73.0436 1.77397 73.0791 1.69265 73.113 1.61272C73.1469 1.5321 73.1777 1.45856 73.2045 1.39143C73.2314 1.32414 73.2533 1.2688 73.27 1.22617C73.2874 1.18424 73.2977 1.15904 73.3015 1.15264H73.3347C73.3331 1.15349 73.3229 1.18185 73.3031 1.2365C73.2826 1.29107 73.2573 1.36538 73.2259 1.45941C73.1942 1.55352 73.1602 1.6602 73.1239 1.77882C73.0868 1.89744 73.0514 2.02154 73.0159 2.15119C72.9811 2.28006 72.9496 2.40739 72.9227 2.53303L72.7286 3.44386C72.7286 3.44463 72.7466 3.4478 72.783 3.45489C72.8194 3.46205 72.8722 3.4683 72.9425 3.47547C73.0127 3.48263 73.0996 3.48572 73.2022 3.48649C73.304 3.48572 73.3907 3.48256 73.4634 3.47547C73.536 3.4683 73.5919 3.46205 73.6306 3.45489C73.6701 3.44772 73.689 3.44463 73.6899 3.44386L74.3955 0.113705C74.3544 0.104995 74.3032 0.0987507 74.2423 0.093201C74.1816 0.0876514 74.1185 0.0829516 74.0514 0.0797914C73.9851 0.0765541 73.9219 0.0742404 73.8635 0.0726218C73.8044 0.071851 73.7562 0.0710035 73.7183 0.0710035C73.5841 0.0718513 73.4713 0.0750093 73.3814 0.0821775C73.2906 0.0892687 73.2219 0.0955903 73.1762 0.102682C73.1303 0.10985 73.1074 0.112934 73.1074 0.113705V0.113859ZM76.501 2.33394H76.8562C77.1167 2.33471 77.3439 2.30233 77.5373 2.23427C77.7308 2.16714 77.8886 2.058 78.0125 1.90615C78.1363 1.75516 78.2248 1.55437 78.277 1.30456C78.3305 1.05151 78.3306 0.833383 78.2777 0.649089C78.2248 0.46572 78.1199 0.323357 77.962 0.222924C77.8043 0.123262 77.5949 0.0726974 77.3345 0.0710787H75.947L75.232 3.44394C75.232 3.44471 75.2525 3.44787 75.2927 3.45496C75.333 3.46213 75.3906 3.46837 75.4663 3.47554C75.5413 3.48271 75.6329 3.48579 75.7387 3.48656C75.8452 3.48579 75.9375 3.48263 76.0157 3.47554C76.0946 3.46837 76.1555 3.46213 76.1987 3.45496C76.2414 3.44779 76.2635 3.44471 76.2644 3.44394L76.501 2.33386V2.33394ZM76.6622 1.57495L76.8184 0.830144H77.0174C77.116 0.828602 77.1863 0.857124 77.2297 0.915626C77.2731 0.97328 77.2809 1.06816 77.2541 1.2002C77.2274 1.32984 77.1792 1.42472 77.1114 1.48562C77.0427 1.54574 76.959 1.57572 76.8611 1.57495H76.6623H76.6622ZM80.4487 0.113859L78.7535 3.44402C78.7535 3.44479 78.7724 3.44795 78.8103 3.45504C78.8481 3.46221 78.9026 3.46845 78.9744 3.47562C79.0462 3.48279 79.1337 3.48587 79.2364 3.48664C79.3396 3.48587 79.4289 3.48271 79.5048 3.47562C79.5804 3.46845 79.6388 3.46221 79.6799 3.45504C79.7218 3.44787 79.7424 3.44479 79.7431 3.44402L80.0225 2.87479H81.0216L81.0643 3.44402C81.0643 3.44479 81.0833 3.44795 81.1203 3.45504C81.1575 3.46221 81.2119 3.46845 81.2845 3.47562C81.3571 3.48279 81.4462 3.48587 81.552 3.48664C81.6657 3.48587 81.762 3.48271 81.841 3.47562C81.92 3.46845 81.9799 3.46221 82.021 3.45504C82.062 3.44787 82.0826 3.44479 82.0826 3.44402L81.8031 0.113859C81.804 0.113089 81.7803 0.109927 81.7345 0.102836C81.6881 0.0957446 81.6153 0.089423 81.5166 0.0823318C81.4188 0.0751636 81.2909 0.0720827 81.1354 0.0711578C80.9855 0.0720056 80.8592 0.0751636 80.7574 0.0823318C80.6556 0.089423 80.579 0.0957446 80.5269 0.102836C80.4748 0.110004 80.4488 0.113089 80.4488 0.113859H80.4487ZM80.946 0.925027C80.946 0.925875 80.9436 0.942447 80.9395 0.974819C80.9357 1.00719 80.9317 1.05151 80.9277 1.10762C80.9237 1.16381 80.9206 1.22864 80.92 1.3014C80.9191 1.37408 80.9215 1.45078 80.9271 1.53225L80.9745 2.19635H80.3636L80.6998 1.53225C80.7384 1.45078 80.7723 1.37408 80.8016 1.3014C80.8301 1.22864 80.8537 1.16381 80.8718 1.10762C80.8908 1.05151 80.9041 1.00719 80.9136 0.974819C80.9224 0.942447 80.9271 0.925875 80.9271 0.925027H80.9461H80.946ZM84.8888 3.44394C84.8888 3.44471 84.9155 3.44787 84.9678 3.45496C85.0198 3.46213 85.0964 3.46837 85.1967 3.47554C85.2977 3.48271 85.4207 3.48579 85.566 3.48656C85.7239 3.48579 85.8533 3.48263 85.9559 3.47554C86.0577 3.46837 86.1335 3.46213 86.1831 3.45496C86.2328 3.44779 86.2573 3.44471 86.2573 3.44394L86.963 0.11378C86.963 0.11301 86.9473 0.109852 86.9164 0.102761C86.8848 0.0956694 86.839 0.0893477 86.7774 0.0822566C86.7166 0.0750883 86.6409 0.0720037 86.5509 0.0710787C86.468 0.0719266 86.3922 0.0750883 86.3251 0.0822566C86.2573 0.0893477 86.2029 0.0956694 86.1627 0.102761C86.1223 0.109929 86.1018 0.11301 86.1011 0.11378L85.8075 1.48955C85.7846 1.59939 85.764 1.70768 85.745 1.81366C85.7261 1.92041 85.7096 2.02 85.6954 2.11411C85.6804 2.20822 85.6677 2.29124 85.6583 2.36315C85.6481 2.43507 85.6402 2.49126 85.6354 2.53234C85.6299 2.5735 85.6275 2.594 85.6275 2.59485H85.6038C85.6038 2.594 85.6045 2.57265 85.607 2.52995C85.6085 2.48725 85.6101 2.42952 85.6125 2.35683C85.6141 2.2833 85.6141 2.19944 85.6141 2.10617C85.6132 2.01206 85.611 1.91325 85.607 1.80973C85.6022 1.70614 85.5951 1.60254 85.5849 1.49895L85.4427 0.11378C85.4436 0.11301 85.4215 0.109852 85.3765 0.102761C85.3314 0.0956694 85.2596 0.0893477 85.1618 0.0822566C85.0647 0.0750883 84.9369 0.0720037 84.7798 0.0710787C84.6218 0.0719266 84.4909 0.0750883 84.3868 0.0822566C84.2816 0.0893477 84.2035 0.0956694 84.1515 0.102761C84.1002 0.109929 84.0741 0.11301 84.0741 0.11378L83.3684 3.44394C83.3684 3.44471 83.3827 3.44787 83.4111 3.45496C83.4396 3.46213 83.4838 3.46837 83.5437 3.47554C83.6037 3.48271 83.681 3.48579 83.7758 3.48656C83.8721 3.48579 83.9542 3.48263 84.022 3.47554C84.0899 3.46837 84.1413 3.46213 84.1768 3.45496C84.2122 3.44779 84.2304 3.44471 84.2304 3.44394L84.5288 2.03981C84.558 1.89983 84.5817 1.77096 84.5997 1.65234C84.6188 1.53294 84.6321 1.42943 84.6415 1.34087C84.6512 1.25153 84.6582 1.1827 84.6614 1.13291C84.6645 1.08389 84.6661 1.05861 84.6661 1.05776H84.6944C84.6944 1.05861 84.6929 1.08473 84.6905 1.13607C84.6881 1.18663 84.6865 1.25785 84.6858 1.34796C84.6849 1.43806 84.6874 1.54165 84.6922 1.66028C84.6977 1.77813 84.7079 1.90461 84.7229 2.03981L84.8886 3.44394H84.8888Z" transform="translate(30.6729 42.4424)" fill="#394B92"/>
<path fill-rule="evenodd" clip-rule="evenodd" d="M2.15468 0.0427016L1.41599 1.08634L1.13174 0.0427016C1.13105 0.0419308 1.10966 0.0387692 1.06703 0.031678C1.02441 0.0245869 0.962765 0.0182653 0.883894 0.0111741C0.805023 0.0040058 0.71115 0.000924937 0.601346 0C0.473613 0.000847859 0.364732 0.0040058 0.274703 0.0111741C0.185521 0.0182653 0.117502 0.0245869 0.0710259 0.031678C0.0235495 0.0388463 0 0.0419308 0 0.0427016L0.629818 2.18686L0.378815 3.37286C0.378122 3.37363 0.395437 3.37679 0.430063 3.38388C0.464843 3.39105 0.519244 3.39729 0.594267 3.40446C0.668521 3.41163 0.766324 3.41471 0.885592 3.41548C0.997628 3.41471 1.09312 3.41155 1.17122 3.40446C1.2494 3.39729 1.30864 3.39105 1.34973 3.38388C1.39075 3.37671 1.41129 3.37363 1.41129 3.37286L1.65745 2.2012L3.22971 0.0427768C3.22971 0.0420061 3.20847 0.0388445 3.16654 0.0317533C3.12552 0.0246621 3.06558 0.0183443 2.98671 0.0112531C2.90769 0.00408484 2.81151 0.00100021 2.69932 7.52716e-05C2.59444 0.000923131 2.50118 0.00408484 2.41915 0.0112531C2.33789 0.0183443 2.27326 0.0246621 2.22655 0.0317533C2.1793 0.0389216 2.1556 0.0420061 2.15476 0.0427768L2.15468 0.0427016Z" transform="translate(118.922 42.5137)" fill="#394B92"/>
<path fill-rule="evenodd" clip-rule="evenodd" d="M0.308097 0.00400798L0.31202 0C1.64113 0.657322 2.91361 1.45955 4.10714 2.37778C4.26634 2.50034 4.42393 2.62489 4.58036 2.75146C5.32398 3.35344 6.03805 4.00359 6.7168 4.69537C7.2335 5.22227 7.72966 5.7733 8.20266 6.34584C9.14534 7.48667 10.004 8.72224 10.7555 10.0332C10.871 10.2352 10.9844 10.4391 11.0948 10.6444C11.9268 12.1891 12.6191 13.8472 13.1327 15.5928C13.1506 15.6541 13.1685 15.716 13.1856 15.7768C13.2035 15.8377 13.2205 15.8987 13.2375 15.9607C13.2542 16.0218 13.2712 16.0827 13.2876 16.1436C13.304 16.2055 13.32 16.2663 13.3365 16.3278L7.86647 15.9347C7.8637 15.9256 7.86147 15.9166 7.85939 15.9075C7.85693 15.8986 7.8547 15.8893 7.85232 15.8799L7.84593 15.8533C7.84393 15.8439 7.84077 15.8345 7.83862 15.8258C7.63979 15.0946 7.38755 14.3862 7.089 13.7057C6.9458 13.3794 6.79175 13.0596 6.62831 12.7465C6.12431 11.7852 5.52481 10.884 4.85137 10.0638C4.32321 9.42041 3.74764 8.82352 3.13483 8.28343C2.96355 8.13251 2.78949 7.98614 2.61282 7.84439C1.8562 7.23779 1.04756 6.71312 0.202601 6.28903C0.135041 6.25527 0.0677906 6.22198 0 6.18945L0.30802 0.00400798H0.308097Z" transform="translate(22.2825 1.83398)" fill="#427844"/>
<path fill-rule="evenodd" clip-rule="evenodd" d="M20.91 14.664C20.4569 14.8442 19.9878 15.0033 19.503 15.1391C17.9416 15.5771 16.3163 15.7504 14.6636 15.6691C12.963 15.5867 11.245 15.2368 9.55192 14.6358C7.82053 14.0221 6.1287 13.1509 4.52427 12.0482C2.89545 10.9302 1.37097 9.58335 0 8.04056L7.03336 2.0031C7.76175 2.78437 8.55877 3.47484 9.40265 4.06217C10.24 4.64403 11.12 5.12084 12.0231 5.47886C12.9156 5.83165 13.8267 6.06797 14.7374 6.17503C15.6342 6.28109 16.528 6.26152 17.4006 6.1069C18.2564 5.95559 19.0418 5.68274 19.751 5.30991C20.447 4.94356 21.0694 4.48016 21.6123 3.93815C22.146 3.40492 22.6032 2.79647 22.9802 2.12921C23.351 1.47312 23.644 0.757909 23.8549 0L27.4208 1.87508L20.91 14.6638V14.664Z" transform="translate(6.50415 24.3955)" fill="#2E2E2D"/>
<path fill-rule="evenodd" clip-rule="evenodd" d="M0.0958862 13.9619C0.211923 12.7811 0.431376 11.6522 0.744167 10.5848C1.46162 8.13829 2.66231 6.04231 4.21618 4.37858C5.366 3.14702 6.70558 2.15665 8.18558 1.43188C8.61118 1.22315 9.04855 1.03662 9.49615 0.872602C11.405 0.173272 13.5046 -0.116772 15.7183 0.0426251L17.3275 7.10637C16.0701 7.17058 14.9073 7.49438 13.8798 8.0441C12.8232 8.60862 11.9097 9.4127 11.1873 10.4149C10.4452 11.4446 9.90728 12.6801 9.62719 14.0725C9.34064 15.4964 9.32517 17.0736 9.63342 18.7423C9.7176 19.1986 9.82425 19.6495 9.95121 20.0944C10.0793 20.5402 10.2275 20.9799 10.395 21.4109C10.5637 21.8427 10.7507 22.2656 10.9566 22.6792V22.6792C11.0459 22.8588 11.1385 23.0363 11.2343 23.2118C11.3596 23.4406 11.4901 23.6664 11.626 23.8881L9.90797 25.2666L4.37846 29.7031C3.8466 28.9179 3.35576 28.101 2.90877 27.257C2.46286 26.4139 2.06204 25.5455 1.71039 24.6554C1.36005 23.7687 1.05911 22.8618 0.811727 21.9394C0.565957 21.0241 0.372666 20.0943 0.2367 19.1555C-0.0269216 17.3413 -0.0650875 15.6016 0.0960401 13.9621L0.0958862 13.9619Z" fill="#394B92"/>
<path fill-rule="evenodd" clip-rule="evenodd" d="M8.45766 7.57138C8.45766 9.91086 6.56445 11.8074 4.22879 11.8074C1.89329 11.8074 0 9.91086 0 7.57138C0 3.91364 4.22879 1.07114e-08 4.22879 1.07114e-08C4.22879 -0.000231224 8.45766 3.74345 8.45766 7.57138ZM2.54896 7.26978C2.54896 6.55264 2.24163 5.97109 1.86243 5.97109C1.48377 5.97109 1.17637 6.55264 1.17637 7.27008C1.17637 7.98706 1.48377 8.56916 1.86243 8.56916C2.24155 8.56916 2.54896 7.98706 2.54896 7.26985V7.26978Z" transform="translate(16.1877 12.2998)" fill="#2E2E2D"/>
<path fill-rule="evenodd" clip-rule="evenodd" d="M4.33058 0.348856C6.53004 0.348856 8.31315 2.13491 8.31315 4.33811C8.31315 6.54131 6.53004 8.32736 4.33058 8.32736C2.1312 8.32736 0.348186 6.54131 0.348186 4.33811C0.348186 2.13491 2.1312 0.348856 4.33058 0.348856ZM4.33058 0C1.93891 0 0 1.94221 0 4.33811C0 6.73393 1.93891 8.67622 4.33058 8.67622C6.72241 8.67622 8.66133 6.73401 8.66133 4.33811C8.66133 1.94229 6.72249 0 4.33058 0ZM4.33058 0.985675C2.48239 0.985675 0.983843 2.48662 0.983843 4.33811C0.983843 6.1896 2.48239 7.69055 4.33058 7.69055C6.17893 7.69055 7.67734 6.18968 7.67734 4.33811C7.67734 2.48669 6.17901 0.985675 4.33058 0.985675ZM4.37315 4.9199L5.06444 6.39563H6.35076L5.42131 4.65883C5.648 4.56048 5.81898 4.41195 5.93417 4.21332C6.04943 4.01461 6.107 3.79425 6.107 3.55199C6.107 3.37039 6.07768 3.20198 6.0192 3.0469C5.96064 2.89174 5.86714 2.75739 5.73872 2.64386C5.61014 2.53032 5.44309 2.44145 5.23718 2.37709C5.03134 2.31273 4.78288 2.28059 4.49202 2.28059H2.84881V6.39563H4.04442V4.9199H4.37307H4.37315ZM4.0445 4.0799H4.49779C4.58844 4.0799 4.66107 4.06849 4.71594 4.04583C4.7708 4.02309 4.81413 3.99195 4.8463 3.95226C4.87831 3.91248 4.89916 3.86423 4.90854 3.80743C4.91809 3.7507 4.92278 3.69019 4.92278 3.62583C4.92278 3.4669 4.89153 3.35436 4.82936 3.28815C4.76688 3.22194 4.64885 3.18888 4.47518 3.18888H4.0445V4.07998V4.0799Z" transform="translate(128.339 1.95898)" fill="#394B92"/>
</svg>
