<svg width="88" height="56" viewBox="0 0 88 56" fill="none" xmlns="http://www.w3.org/2000/svg">
<path fill-rule="evenodd" clip-rule="evenodd" d="M0.00243312 14.7921C0.00243312 12.7752 0.368618 10.783 1.14418 8.91566C1.92643 7.03325 3.08216 5.33842 4.57488 3.93973C5.96784 2.63453 7.60229 1.61642 9.3949 0.945126C11.0646 0.32027 12.8274 0 14.6127 0C14.7356 0 14.8579 0.00180987 14.9801 0.00422244V0.0102542H39.5717C39.0687 1.17914 38.405 2.36914 37.8205 3.50547H14.9795V3.51029C14.8573 3.50607 14.735 3.50426 14.6121 3.50426C13.255 3.50426 11.9126 3.74853 10.6425 4.22381C9.28845 4.73105 8.05364 5.50127 7.00192 6.4868C5.87295 7.54471 5.0025 8.8282 4.41125 10.251C3.8121 11.6931 3.53594 13.236 3.53594 14.7927C3.53594 16.3482 3.80966 17.8916 4.40456 19.3337C4.99216 20.7596 5.86079 22.0467 6.98732 23.1088C8.03661 24.0974 9.26594 24.8754 10.6194 25.3875C11.8955 25.8706 13.2465 26.1161 14.6115 26.1161C14.6869 26.1161 14.7618 26.1149 14.8372 26.1137H14.8378C14.8852 26.1125 14.9321 26.1113 14.9789 26.1094V26.1137H26.4888C25.9395 27.2228 25.3635 28.3881 24.7601 29.6089H14.9783V29.6155C14.856 29.6185 14.7338 29.6203 14.6109 29.6203C12.8134 29.6203 11.0385 29.2971 9.3584 28.6613C7.56884 27.984 5.94108 26.9575 4.55237 25.6492C3.06209 24.2451 1.91 22.5461 1.13201 20.6607C0.362535 18.7963 0 16.8048 0 14.7927L0.00243312 14.7921ZM70.8021 15.2137H67.5715C67.5715 14.8554 67.5715 14.4585 67.5715 14.0291C67.5715 13.6039 67.5715 13.1618 67.5715 12.7112C67.5715 12.2613 67.5715 11.8192 67.5715 11.3934C67.5715 10.9639 67.5715 10.5677 67.5715 10.2094C68.0928 10.2052 68.6275 10.2052 69.1786 10.201C69.7254 10.1925 70.268 10.1967 70.8021 10.2094C71.1762 10.2172 71.4961 10.3131 71.7565 10.4929C72.0217 10.6762 72.2273 10.9145 72.383 11.2106C72.5351 11.511 72.6354 11.8361 72.6817 12.1907C72.7279 12.5448 72.7236 12.8994 72.6646 13.2541C72.6099 13.6045 72.501 13.9296 72.341 14.2257C72.1853 14.5219 71.9754 14.7595 71.7188 14.9392C71.4621 15.1184 71.1555 15.2101 70.8021 15.2143V15.2137ZM67.5715 23.7216V19.2427H70.827C71.765 19.2342 72.602 19.0883 73.3337 18.7963C74.0612 18.5044 74.6878 18.1039 75.2097 17.5991C75.731 17.0949 76.1519 16.5153 76.4627 15.8687C76.7742 15.2179 76.9846 14.5345 77.0893 13.8126C77.1945 13.0954 77.1945 12.3741 77.0893 11.6521C76.984 10.9308 76.7742 10.2462 76.4627 9.5954C76.1519 8.94461 75.731 8.36921 75.2097 7.86016C74.6878 7.35171 74.0612 6.95122 73.3337 6.6593C72.602 6.36316 71.765 6.21298 70.827 6.20453C69.5229 6.20453 68.2236 6.20453 66.9237 6.20453C65.6201 6.20453 64.333 6.20453 63.0544 6.20453C63.0544 9.13219 63.0544 12.0562 63.0544 14.9706C63.0544 17.8898 63.0544 20.8054 63.0544 23.7204C63.7989 23.7204 64.5477 23.7204 65.3044 23.7204C66.0575 23.7204 66.8142 23.7204 67.5715 23.7204V23.7216ZM50.0579 12.3361V10.2094H58.2344V6.20573H45.5408V23.7216H53.3134C54.2514 23.7132 55.0883 23.5799 55.8201 23.3253C56.5476 23.0666 57.1741 22.7162 57.696 22.2747C58.218 21.8326 58.6383 21.3277 58.9497 20.7608C59.2612 20.189 59.471 19.5931 59.5762 18.9634C59.6815 18.3337 59.6815 17.704 59.5762 17.0738C59.471 16.4483 59.2612 15.8482 58.9497 15.2806C58.6383 14.7173 58.218 14.2131 57.696 13.771C57.1748 13.3288 56.5476 12.9784 55.8201 12.7239C55.0883 12.4694 54.2514 12.3403 53.3134 12.3361H50.0579ZM53.2884 16.2897C53.7003 16.2939 54.0451 16.3771 54.3189 16.5442C54.5962 16.7071 54.8025 16.9194 54.9411 17.1781C55.0798 17.4369 55.1516 17.7119 55.1516 18.0038C55.1559 18.2957 55.0841 18.5708 54.9497 18.8301C54.8104 19.0883 54.6048 19.3012 54.3268 19.464C54.0494 19.6263 53.7045 19.7143 53.2878 19.7185C52.7532 19.7185 52.2112 19.7185 51.6643 19.7185C51.1132 19.7185 50.5792 19.7185 50.0579 19.7185V16.2903H53.2884V16.2897ZM32.0965 29.6475L46.9982 0.0114599H41.6983L34.4062 14.2505H34.2803L30.1111 6.20272H24.8106L31.8575 19.1805L26.8349 29.6481H32.0972L32.0965 29.6475ZM11.8755 14.9887C11.8797 15.7812 12.0105 16.4773 12.2544 17.0738C12.5026 17.6703 12.839 18.1667 13.2599 18.5629C13.6808 18.9592 14.1559 19.2596 14.6778 19.4598C15.2034 19.6558 15.746 19.7559 16.3056 19.7559C16.8652 19.7559 17.4072 19.6558 17.9333 19.4598C18.4589 19.2596 18.9297 18.9592 19.3506 18.5629C19.7716 18.1667 20.1079 17.6703 20.3561 17.0738C20.6043 16.4779 20.7308 15.7812 20.7351 14.9887C20.7308 14.2004 20.6049 13.5122 20.3561 12.9199C20.1079 12.3282 19.7716 11.8355 19.3506 11.4398C18.9297 11.0478 18.4589 10.7516 17.9333 10.5556C17.4072 10.3596 16.8646 10.2595 16.3056 10.2595C15.746 10.2595 15.2034 10.3596 14.6778 10.5556C14.1559 10.7516 13.6808 11.0478 13.2599 11.4398C12.839 11.8361 12.5026 12.3282 12.2544 12.9199C12.0105 13.5122 11.8797 14.2004 11.8755 14.9887ZM25.3519 14.9887C25.3477 13.7794 25.1749 12.6865 24.8428 11.7191C24.5107 10.7516 24.052 9.90059 23.4675 9.17561C22.8829 8.44943 22.2059 7.84508 21.4407 7.35714C20.6706 6.87342 19.8506 6.51032 18.9759 6.26907C18.097 6.02721 17.2052 5.90597 16.2922 5.90597C15.3798 5.90597 14.488 6.0266 13.6091 6.26907C12.7344 6.51093 11.9144 6.87342 11.1486 7.35714C10.3791 7.84508 9.70147 8.45003 9.11691 9.17561C8.53236 9.90119 8.07371 10.7522 7.74159 11.7191C7.40947 12.6865 7.24098 13.7794 7.23307 14.9887C7.24098 16.2022 7.40947 17.2951 7.74159 18.2668C8.07432 19.2342 8.53236 20.0853 9.11691 20.8151C9.70147 21.5412 10.3791 22.1498 11.1486 22.6335C11.9144 23.1215 12.7344 23.4846 13.6091 23.7264C14.488 23.9683 15.3798 24.0895 16.2922 24.0895C17.2052 24.0895 18.097 23.9689 18.9759 23.7264C19.8506 23.4852 20.6712 23.1221 21.4407 22.6335C22.2059 22.1498 22.8829 21.5412 23.4675 20.8151C24.0526 20.0853 24.5107 19.2384 24.8428 18.2668C25.1749 17.2951 25.3477 16.2022 25.3519 14.9887Z" transform="translate(0 26.3516)" fill="#C32328"/>
<path fill-rule="evenodd" clip-rule="evenodd" d="M27.3477 9.0206V14.4326L25.8063 13.7854L26.5533 9.46813L27.3477 9.02121V9.0206ZM53.7885 41.1784C53.7885 39.1669 53.4259 37.1753 52.6564 35.3104C51.8791 33.4256 50.7264 31.7259 49.2361 30.3218C47.8474 29.0136 46.2202 27.9864 44.4307 27.3097C42.7506 26.674 40.9756 26.3507 39.1782 26.3507C39.0553 26.3507 38.933 26.3525 38.8108 26.3555V26.3622H34.79L33.7663 20.4622L33.658 19.9067L33.47 18.8108L33.2985 17.7939L32.6142 13.9073L32.5041 13.2752L31.057 5.01031H32.6288V2.86734H29.2176L28.9846 0H27.5521L27.3161 2.86734H23.9219V5.01031H25.4797L24.0301 13.2752L23.9219 13.9073L23.2521 17.7939L23.0654 18.8108L22.8774 19.9067L22.7838 20.4622L21.7503 26.3622H14.8633C14.2599 27.5829 13.6839 28.7482 13.1346 29.8574H38.8108V29.861C38.8576 29.8592 38.905 29.858 38.9525 29.8574H38.9531C39.0279 29.8556 39.1033 29.8556 39.1782 29.8556C40.5437 29.8556 41.8947 30.101 43.1709 30.5836C44.5237 31.0956 45.7531 31.8737 46.8024 32.8622C47.9301 33.9238 48.7981 35.2115 49.3857 36.6367C49.9806 38.0788 50.2543 39.6223 50.2543 41.1778C50.2543 42.7345 49.9782 44.2773 49.379 45.7194C48.7884 47.1422 47.9179 48.4257 46.7884 49.4836C45.7366 50.4692 44.5018 51.2394 43.1478 51.7466C41.8777 52.2219 40.5358 52.4662 39.1782 52.4662C39.0553 52.4662 38.933 52.4644 38.8108 52.4602V52.4656H1.80477L0 55.9608H38.8101V55.9668C38.9324 55.9698 39.0547 55.9716 39.1775 55.9716C40.9628 55.9716 42.725 55.6514 44.3954 55.0259C46.188 54.3552 47.8224 53.3365 49.2154 52.0313C50.7087 50.632 51.8639 48.9372 52.6461 47.0548C53.4217 45.1881 53.7878 43.1947 53.7878 41.1784H53.7885ZM23.6056 26.3628L23.7029 25.8133L27.3477 23.7307V26.3628H23.6056ZM29.2036 26.3628V23.7307L32.8478 25.8133L32.9402 26.3628H29.2036ZM27.3477 15.3427V15.4513L25.3087 16.622L25.6506 14.6341L27.3477 15.3427ZM27.3477 16.3753V21.7722L24.6086 20.6317L25.1214 17.6407L27.3483 16.3753H27.3477ZM27.3477 22.6981V22.8066L23.8738 24.7952L24.4517 21.4797L27.3477 22.6987V22.6981ZM29.2036 22.8066V22.6981L32.0844 21.4791L32.6604 24.7946L29.2042 22.806L29.2036 22.8066ZM29.2036 21.7722V16.3753L31.4141 17.6407L31.9287 20.6317L29.2036 21.7722ZM29.2036 15.4513V15.3427L30.8842 14.6341L31.2279 16.622L29.2036 15.4513ZM29.2036 14.4326V9.0206L29.9809 9.46753L30.7291 13.7848L29.2036 14.432V14.4326ZM27.3477 5.01091V8.11046L26.7419 8.45063L27.3477 5.01091ZM29.2036 8.11046V5.01091L29.7936 8.45063L29.2036 8.11046Z" transform="translate(34.2114)" fill="#2E2E2D"/>
<path fill-rule="evenodd" clip-rule="evenodd" d="M19.4814 0.000602812C19.6548 0.000602812 19.8087 0.0241253 19.9425 0.0711704C20.0763 0.118216 20.1895 0.184561 20.2819 0.270811C20.3744 0.356457 20.4443 0.458991 20.4918 0.578414C20.5392 0.697233 20.5629 0.829321 20.5629 0.973472V1.58807C20.5629 1.73223 20.5392 1.86431 20.4918 1.98374C20.4443 2.10255 20.375 2.20509 20.2819 2.29134C20.1895 2.37759 20.0763 2.44393 19.9425 2.49098C19.8087 2.53802 19.6548 2.56155 19.4814 2.56155C19.3081 2.56155 19.1554 2.53802 19.0222 2.49098C18.8896 2.44393 18.7764 2.37759 18.6846 2.29134C18.5921 2.20569 18.5222 2.10316 18.4747 1.98374C18.4273 1.86431 18.4035 1.73283 18.4035 1.58807V0.973472C18.4035 0.829321 18.4273 0.697233 18.4747 0.578414C18.5222 0.459595 18.5921 0.35706 18.6846 0.270811C18.777 0.184561 18.8896 0.118216 19.0222 0.0711704C19.1548 0.0241253 19.3081 0.000602812 19.4814 0.000602812ZM19.8312 0.972869C19.8312 0.826305 19.8038 0.721359 19.7497 0.658632C19.6955 0.595905 19.6061 0.563938 19.4808 0.563938C19.3585 0.563938 19.2703 0.594699 19.2156 0.656823C19.1615 0.718946 19.1341 0.822686 19.1341 0.96925V1.58747C19.1341 1.74308 19.1615 1.85406 19.2156 1.9192C19.2697 1.98434 19.3579 2.01691 19.4808 2.01691C19.6055 2.01691 19.6949 1.98434 19.7497 1.9192C19.8038 1.85406 19.8312 1.74308 19.8312 1.58747V0.972869ZM22.8708 0.0349815V0.608571H21.7619V0.986742H22.0909C22.2594 0.986742 22.4012 1.00484 22.5167 1.04163C22.6323 1.07782 22.7266 1.12908 22.799 1.19483C22.872 1.25997 22.9243 1.33958 22.9565 1.43367C22.9888 1.52716 23.0052 1.6309 23.0052 1.74308C23.0052 1.8625 22.9888 1.96986 22.9553 2.06576C22.9218 2.16166 22.8677 2.24429 22.7941 2.31305C22.7205 2.38181 22.6238 2.43428 22.5046 2.47108C22.386 2.50787 22.2418 2.52596 22.0733 2.52596H21.0301V0.0349815H22.8701H22.8708ZM22.0252 1.9765C22.1244 1.9765 22.1937 1.95901 22.2333 1.92342C22.2722 1.88784 22.2923 1.82752 22.2923 1.74308C22.2923 1.65623 22.2734 1.59652 22.2351 1.56455C22.1968 1.53259 22.1256 1.5163 22.0216 1.5163H21.7582V1.9765H22.0252ZM27.0052 1.89387V3.06216H26.2571V2.52596H23.4504V0.0349815H24.1816V1.94212H24.6913V0.0349815H25.4188V1.94212H25.9286V0.0349815H26.6561V1.89387H27.0058H27.0052ZM29.0813 0.0349815V0.626062H28.0521V1.00363H28.7899V1.51932H28.0521V1.94514H29.1123V2.52596H27.3209V0.0349815H29.0813ZM30.4572 0.000602812C30.5752 0.000602812 30.6847 0.0168872 30.7863 0.05006C30.8879 0.0832329 30.9779 0.127866 31.0564 0.183958C31.1349 0.24005 31.2012 0.304586 31.2559 0.37817C31.31 0.451753 31.3502 0.527147 31.3751 0.604952L30.8587 0.804592C30.8331 0.729199 30.7942 0.670694 30.7407 0.62968C30.6878 0.588667 30.6172 0.567557 30.529 0.567557C30.411 0.567557 30.3265 0.598921 30.2747 0.662251C30.2224 0.724977 30.1969 0.81364 30.1969 0.928237V1.68397C30.1969 1.78952 30.2224 1.87155 30.2729 1.93126C30.324 1.99097 30.408 2.02053 30.526 2.02053C30.6136 2.02053 30.6841 1.99942 30.737 1.9572C30.79 1.91498 30.8307 1.85346 30.8581 1.77324L31.3812 1.96202C31.3259 2.15201 31.2218 2.29918 31.0692 2.40352C30.9165 2.50787 30.7121 2.55974 30.456 2.55974C30.3058 2.55974 30.1695 2.53923 30.0473 2.49761C29.925 2.4566 29.8198 2.39809 29.7322 2.3227C29.6446 2.24671 29.5771 2.15563 29.5296 2.04767C29.4822 1.94031 29.4584 1.81968 29.4584 1.68699V0.931252C29.4584 0.787101 29.4828 0.656823 29.5308 0.541019C29.5795 0.425216 29.647 0.327506 29.7334 0.247288C29.8204 0.16707 29.9244 0.106152 30.0473 0.0633293C30.1695 0.0211093 30.3064 0 30.456 0L30.4572 0.000602812ZM33.5795 0.0349815V0.632696H32.9487V2.52596H32.2176V0.632696H31.5868V0.0349815H33.5789H33.5795ZM35.8874 0.691201C35.8874 0.814845 35.8636 0.922808 35.8162 1.01449C35.7687 1.10616 35.683 1.17854 35.5577 1.23101V1.23825C35.717 1.28409 35.832 1.35647 35.9026 1.45659C35.9731 1.55611 36.0084 1.67251 36.0084 1.80521C36.0084 1.91498 35.992 2.0151 35.9585 2.10376C35.9251 2.19303 35.8709 2.26902 35.7955 2.33054C35.7207 2.39267 35.6234 2.44032 35.5047 2.47469C35.3855 2.50907 35.2408 2.52596 35.0698 2.52596H33.9579V0.0349815H34.9421C35.113 0.0349815 35.2584 0.0524735 35.3788 0.0886621C35.4993 0.124247 35.5966 0.172499 35.6714 0.232813C35.7462 0.293731 35.8016 0.363695 35.8363 0.442707C35.8709 0.521718 35.888 0.604952 35.888 0.691805L35.8874 0.691201ZM34.6708 1.9765H35.0175C35.1167 1.9765 35.1866 1.95901 35.2274 1.92342C35.2681 1.88784 35.2882 1.82752 35.2882 1.74308C35.2882 1.65623 35.2693 1.59712 35.231 1.56636C35.1927 1.5356 35.1221 1.51992 35.0181 1.51992H34.6714V1.9771L34.6708 1.9765ZM34.6708 1.02474H34.9652C35.0668 1.02474 35.1361 1.00725 35.1732 0.972869C35.2103 0.93849 35.2286 0.882398 35.2286 0.804592C35.2286 0.726787 35.2103 0.67371 35.1732 0.644759C35.1361 0.615808 35.0656 0.601936 34.9616 0.601936H34.6702V1.02474H34.6708ZM37.4366 0.000602812C37.61 0.000602812 37.7633 0.0241253 37.8977 0.0711704C38.0315 0.118216 38.1453 0.184561 38.2371 0.270811C38.3296 0.356457 38.3996 0.458991 38.447 0.578414C38.4944 0.697233 38.5182 0.829321 38.5182 0.973472V1.58807C38.5182 1.73223 38.4944 1.86431 38.447 1.98374C38.3996 2.10255 38.3296 2.20509 38.2371 2.29134C38.1447 2.37759 38.0315 2.44393 37.8977 2.49098C37.7639 2.53802 37.61 2.56155 37.4366 2.56155C37.2633 2.56155 37.11 2.53802 36.9774 2.49098C36.8448 2.44393 36.7317 2.37759 36.6392 2.29134C36.5467 2.20569 36.4768 2.10316 36.4293 1.98374C36.3819 1.86431 36.3582 1.73283 36.3582 1.58807V0.973472C36.3582 0.829321 36.3819 0.697233 36.4293 0.578414C36.4768 0.459595 36.5467 0.35706 36.6392 0.270811C36.7317 0.184561 36.8442 0.118216 36.9774 0.0711704C37.11 0.0241253 37.2633 0.000602812 37.4366 0.000602812ZM37.7864 0.972869C37.7864 0.826305 37.759 0.721359 37.7049 0.658632C37.6508 0.595905 37.5613 0.563938 37.4366 0.563938C37.3144 0.563938 37.2256 0.594699 37.1714 0.656823C37.1173 0.718946 37.0899 0.822686 37.0899 0.96925V1.58747C37.0899 1.74308 37.1173 1.85406 37.1714 1.9192C37.2256 1.98434 37.3144 2.01691 37.4366 2.01691C37.5613 2.01691 37.6508 1.98434 37.7049 1.9192C37.759 1.85406 37.7864 1.74308 37.7864 1.58747V0.972869ZM7.01774 3.79739C7.13574 3.79739 7.24523 3.81367 7.34682 3.84684C7.4484 3.88002 7.53842 3.92465 7.61689 3.98074C7.69536 4.03683 7.76166 4.10137 7.8158 4.17495C7.86994 4.24854 7.91009 4.32393 7.93502 4.40173L7.41859 4.60138C7.39305 4.52598 7.35351 4.46748 7.30059 4.42646C7.24767 4.38545 7.17711 4.36434 7.08891 4.36434C6.9709 4.36434 6.88635 4.39631 6.83404 4.45903C6.78233 4.52176 6.75618 4.61042 6.75618 4.72502V5.48076C6.75618 5.58631 6.78172 5.66894 6.83282 5.72805C6.88331 5.78776 6.96786 5.81731 7.08586 5.81731C7.17346 5.81731 7.24402 5.7962 7.29755 5.75398C7.35047 5.71176 7.39122 5.65024 7.41859 5.57002L7.94172 5.75881C7.88636 5.9488 7.78235 6.09596 7.62967 6.20031C7.4776 6.30465 7.27261 6.35652 7.01652 6.35652C6.86627 6.35652 6.73002 6.33541 6.60776 6.2944C6.48549 6.25338 6.38026 6.19488 6.29267 6.11949C6.20507 6.04409 6.13695 5.95242 6.09011 5.84506C6.04266 5.73709 6.01894 5.61707 6.01894 5.48438V4.72804C6.01894 4.58388 6.04327 4.45361 6.09193 4.33841C6.14059 4.2226 6.20812 4.12489 6.29449 4.04468C6.38087 3.96446 6.48549 3.90354 6.60836 3.86072C6.73063 3.81789 6.86688 3.79739 7.01713 3.79739H7.01774ZM10.047 3.79739C10.2203 3.79739 10.3736 3.82091 10.5081 3.86796C10.6419 3.915 10.755 3.98135 10.8475 4.0676C10.9399 4.15324 11.0099 4.25578 11.0573 4.3752C11.1048 4.49402 11.1285 4.62611 11.1285 4.77026V5.38546C11.1285 5.52961 11.1048 5.6617 11.0573 5.78112C11.0099 5.89994 10.9399 6.00248 10.8475 6.08873C10.755 6.17497 10.6419 6.24132 10.5081 6.28837C10.3742 6.33541 10.2203 6.35893 10.047 6.35893C9.87362 6.35893 9.72033 6.33541 9.58772 6.28837C9.45512 6.24132 9.34198 6.17497 9.25013 6.08873C9.15767 6.00308 9.08772 5.90055 9.04027 5.78112C8.99282 5.6617 8.9691 5.53022 8.9691 5.38546V4.77026C8.9691 4.62611 8.99282 4.49402 9.04027 4.3752C9.08772 4.25578 9.15767 4.15384 9.25013 4.0676C9.34259 3.98135 9.45512 3.915 9.58772 3.86796C9.72033 3.82091 9.87362 3.79739 10.047 3.79739ZM10.3967 4.76965C10.3967 4.62309 10.3694 4.51814 10.3152 4.45542C10.2611 4.39269 10.1717 4.36072 10.047 4.36072C9.9241 4.36072 9.8359 4.39148 9.78176 4.45361C9.72763 4.51513 9.70026 4.61947 9.70026 4.76603V5.38425C9.70026 5.53987 9.72763 5.65084 9.78176 5.71598C9.8359 5.78112 9.9241 5.8143 10.047 5.8143C10.1717 5.8143 10.2611 5.78173 10.3152 5.71598C10.3694 5.65084 10.3967 5.54047 10.3967 5.38425V4.76905V4.76965ZM13.1973 3.83177V4.42285H12.3104V6.32335H11.5963V3.83237H13.1973V3.83177ZM14.6565 3.83177C14.8043 3.83177 14.9369 3.85227 15.055 3.89389C15.173 3.9349 15.2715 3.99341 15.3512 4.0688C15.4309 4.14419 15.4923 4.23527 15.5349 4.34202C15.5775 4.44878 15.5988 4.567 15.5988 4.69788C15.5988 4.82876 15.5793 4.94637 15.5398 5.05192C15.5002 5.15747 15.443 5.24794 15.3682 5.32334C15.2934 5.39873 15.2009 5.45724 15.0908 5.49825C14.9807 5.53926 14.8567 5.56037 14.7186 5.56037H14.3062V6.32335H13.575V3.83237H14.6559L14.6565 3.83177ZM14.3068 5.03805H14.6292C14.7167 5.03805 14.7788 5.01091 14.8147 4.95723C14.8506 4.90355 14.8682 4.82152 14.8682 4.71175C14.8682 4.59957 14.8506 4.51754 14.8147 4.46627C14.7788 4.415 14.7167 4.38907 14.6292 4.38907H14.3068V5.03866V5.03805ZM16.3275 6.32335L16.4485 5.88728H17.235L17.3597 6.32335H18.1012L17.2557 3.83237H16.4382L15.5927 6.32335H16.3275ZM16.5872 5.38184L16.833 4.47834H16.8396L17.0927 5.38184H16.5872ZM19.1694 3.83237V4.76664H19.7965V3.83237H20.524V6.32335H19.7965V5.37159H19.1694V6.32335H18.4382V3.83237H19.1694ZM23.2138 3.83237V6.32335H22.5173V4.86616H22.5107L21.7795 6.32335H21.0897V3.83237H21.7795V5.28896H21.7868L22.518 3.83237H23.2144H23.2138ZM24.9432 6.32335V5.3746C24.869 5.38848 24.7954 5.39813 24.7218 5.40416C24.6475 5.41019 24.577 5.4126 24.5101 5.4126C24.3531 5.4126 24.2193 5.39572 24.1098 5.36073C23.9997 5.32635 23.9109 5.27328 23.8416 5.2009C23.7722 5.12852 23.7211 5.03745 23.6889 4.92768C23.6567 4.8179 23.6402 4.68582 23.6402 4.53262V3.83177H24.3714V4.52236C24.3714 4.64842 24.3975 4.73527 24.4492 4.78353C24.5016 4.83178 24.5885 4.8559 24.7108 4.8559C24.7497 4.8559 24.7881 4.8547 24.8252 4.85228C24.8623 4.84987 24.9012 4.84686 24.9432 4.84203V3.83177H25.6707V6.32275H24.9432V6.32335ZM27.9931 3.83237V4.42345H26.9639V4.80162H27.7017V5.3167H26.9639V5.74313H28.0241V6.32395H26.2327V3.83297H27.9931V3.83237ZM29.1957 3.83237V4.76664H29.8228V3.83237H30.5503V6.32335H29.8228V5.37159H29.1957V6.32335H28.4645V3.83237H29.1957ZM31.8472 3.83237V4.76664H32.4743V3.83237H33.2018V6.32335H32.4743V5.37159H31.8472V6.32335H31.116V3.83237H31.8472ZM34.7511 3.79799C34.9244 3.79799 35.0783 3.82151 35.2122 3.86856C35.346 3.9156 35.4591 3.98195 35.5516 4.0682C35.644 4.15384 35.714 4.25638 35.7614 4.3758C35.8089 4.49462 35.8326 4.62671 35.8326 4.77086V5.38606C35.8326 5.53022 35.8089 5.6623 35.7614 5.78173C35.714 5.90055 35.6447 6.00308 35.5516 6.08933C35.4591 6.17558 35.346 6.24192 35.2122 6.28897C35.0783 6.33601 34.9244 6.35954 34.7511 6.35954C34.5777 6.35954 34.425 6.33601 34.2924 6.28897C34.1598 6.24192 34.0467 6.17558 33.9542 6.08933C33.8618 6.00368 33.7918 5.90115 33.7444 5.78173C33.6969 5.6623 33.6732 5.53082 33.6732 5.38606V4.77086C33.6732 4.62671 33.6969 4.49462 33.7444 4.3758C33.7918 4.25638 33.8618 4.15445 33.9542 4.0682C34.0467 3.98195 34.1592 3.9156 34.2924 3.86856C34.425 3.82151 34.5783 3.79799 34.7511 3.79799ZM35.1008 4.77026C35.1008 4.62369 35.0735 4.51875 35.0193 4.45602C34.9652 4.39329 34.8758 4.36133 34.7505 4.36133C34.6282 4.36133 34.54 4.39209 34.4853 4.45421C34.4311 4.51573 34.4038 4.62007 34.4038 4.76664V5.38486C34.4038 5.54047 34.4311 5.65145 34.4853 5.71659C34.5394 5.78173 34.6276 5.8149 34.7505 5.8149C34.8752 5.8149 34.9646 5.78233 35.0193 5.71659C35.0735 5.65145 35.1008 5.54107 35.1008 5.38486V4.76965V4.77026ZM38.4245 3.83237V6.32335H37.728V4.86616H37.7213L36.9902 6.32335H36.3004V3.83237H36.9902V5.28896H36.9969L37.728 3.83237H38.4245ZM37.1769 3.29979C37.1836 3.35709 37.2012 3.39992 37.2292 3.42887C37.2572 3.45721 37.304 3.47169 37.371 3.47169C37.4379 3.47169 37.4847 3.45721 37.5115 3.42887C37.5382 3.39992 37.5547 3.35709 37.5613 3.29979H38.0048C37.9865 3.38001 37.9616 3.44877 37.9306 3.50607C37.8995 3.56337 37.8582 3.61102 37.8077 3.64841C37.7572 3.68641 37.6958 3.71415 37.624 3.73285C37.5522 3.75155 37.4658 3.7606 37.3643 3.7606C37.2627 3.7606 37.1757 3.75155 37.1027 3.73285C37.0297 3.71476 36.9689 3.68641 36.919 3.64841C36.8691 3.61041 36.829 3.56337 36.798 3.50607C36.7669 3.44877 36.7408 3.38001 36.7201 3.29979H37.1775H37.1769ZM1.07787 7.59477C1.25123 7.59477 1.40452 7.6183 1.53895 7.66534C1.67277 7.71239 1.78591 7.77873 1.87837 7.86498C1.97083 7.95063 2.04078 8.05316 2.08823 8.17259C2.13568 8.29201 2.1594 8.42349 2.1594 8.56764V9.18285C2.1594 9.327 2.13568 9.45909 2.08823 9.57791C2.04078 9.69733 1.97083 9.79926 1.87837 9.88551C1.78591 9.97116 1.67277 10.0381 1.53895 10.0845C1.40513 10.1316 1.25123 10.1551 1.07787 10.1551C0.904514 10.1551 0.751227 10.1316 0.618622 10.0845C0.486016 10.0375 0.372877 9.97116 0.281026 9.88551C0.188568 9.79926 0.118615 9.69733 0.0711688 9.57791C0.0237228 9.45909 0 9.327 0 9.18285V8.56764C0 8.42349 0.0237228 8.2914 0.0711688 8.17259C0.118615 8.05377 0.188568 7.95123 0.281026 7.86498C0.373485 7.77934 0.486016 7.71239 0.618622 7.66534C0.751227 7.6183 0.904514 7.59477 1.07787 7.59477ZM1.42764 8.56704C1.42764 8.42048 1.40026 8.31553 1.34613 8.2528C1.29199 8.19007 1.20257 8.15811 1.07787 8.15811C0.955609 8.15811 0.8668 8.18887 0.812663 8.25099C0.758526 8.31312 0.731154 8.41746 0.731154 8.56402V9.18225C0.731154 9.33786 0.758526 9.44883 0.812663 9.51397C0.8668 9.57911 0.955609 9.61229 1.07787 9.61229C1.20257 9.61229 1.29199 9.57972 1.34613 9.51397C1.40026 9.44883 1.42764 9.33786 1.42764 9.18225V8.56704ZM4.39422 7.62915V8.22687H3.76343V10.1201H3.03228V8.22687H2.40149V7.62915H4.39361H4.39422ZM6.70265 8.28537C6.70265 8.40902 6.67893 8.51638 6.63148 8.60805C6.58403 8.69973 6.49826 8.77211 6.37357 8.82458V8.83122C6.53294 8.87706 6.6479 8.94943 6.71846 9.04955C6.78902 9.14907 6.8243 9.26548 6.8243 9.39817C6.8243 9.50794 6.80788 9.60806 6.77442 9.69673C6.74097 9.78599 6.68683 9.86199 6.6114 9.92351C6.53598 9.98503 6.43926 10.0333 6.32004 10.0677C6.20142 10.102 6.05604 10.1195 5.88512 10.1195H4.77318V7.62855H5.75738C5.92831 7.62855 6.07369 7.64604 6.19413 7.68163C6.31456 7.71721 6.41189 7.76546 6.48671 7.82578C6.56153 7.88609 6.61688 7.95666 6.65155 8.03567C6.68622 8.11468 6.70386 8.19731 6.70386 8.28477L6.70265 8.28537ZM5.48609 9.57067H5.83281C5.93196 9.57067 6.00191 9.55258 6.04266 9.51699C6.08342 9.48141 6.10349 9.42169 6.10349 9.33665C6.10349 9.2498 6.08463 9.19069 6.04631 9.15993C6.00799 9.12917 5.93682 9.11349 5.83341 9.11349H5.48669V9.57067H5.48609ZM5.48609 8.61891H5.78049C5.88208 8.61891 5.95142 8.60202 5.98853 8.56704C6.02563 8.53266 6.04388 8.47657 6.04388 8.39876C6.04388 8.32036 6.02563 8.26788 5.98853 8.23893C5.95142 8.21058 5.88086 8.19611 5.77684 8.19611H5.48609V8.61891ZM9.02811 7.62915V8.22023H7.99889V8.5984H8.73674V9.11349H7.99889V9.53991H9.05913V10.1207H7.26774V7.62976H9.02811V7.62915ZM11.3085 7.62915V8.22687H10.6778V10.1201H9.94661V8.22687H9.31582V7.62915H11.3079H11.3085ZM12.5494 7.59477C12.6674 7.59477 12.7769 7.61166 12.8785 7.64483C12.9801 7.67801 13.0701 7.72264 13.1486 7.77873C13.2271 7.83483 13.2934 7.89936 13.3481 7.97294C13.4023 8.04653 13.4424 8.12192 13.4673 8.19973L12.9509 8.39937C12.9254 8.32337 12.8864 8.26547 12.8329 8.22385C12.78 8.18284 12.7094 8.16233 12.6212 8.16233C12.5032 8.16233 12.4187 8.19369 12.367 8.25642C12.3146 8.31915 12.2891 8.40841 12.2891 8.52301V9.27875C12.2891 9.3843 12.3146 9.46633 12.3651 9.52604C12.4162 9.58575 12.5002 9.6153 12.6182 9.6153C12.7058 9.6153 12.7763 9.59419 12.8293 9.55197C12.8822 9.50975 12.9229 9.44823 12.9503 9.36801L13.4734 9.5568C13.4181 9.74679 13.3141 9.89395 13.1614 9.9983C13.0087 10.1026 12.8043 10.1545 12.5482 10.1545C12.398 10.1545 12.2617 10.134 12.1395 10.0924C12.0172 10.0514 11.912 9.99287 11.8244 9.91748C11.7368 9.84208 11.6693 9.75041 11.6218 9.64244C11.5744 9.53508 11.5506 9.41446 11.5506 9.28176V8.52603C11.5506 8.38188 11.575 8.2516 11.623 8.1364C11.6717 8.02059 11.7392 7.92288 11.8256 7.84267C11.9126 7.76245 12.0166 7.70093 12.1395 7.65871C12.2617 7.61649 12.3986 7.59538 12.5482 7.59538L12.5494 7.59477ZM15.6718 7.62915V8.22687H15.041V10.1201H14.3098V8.22687H13.679V7.62915H15.6711H15.6718ZM17.9802 8.28537C17.9802 8.40902 17.9565 8.51638 17.909 8.60805C17.8616 8.69973 17.7758 8.77211 17.6511 8.82458V8.83122C17.8105 8.87706 17.9254 8.94943 17.996 9.04955C18.0665 9.14907 18.1018 9.26548 18.1018 9.39817C18.1018 9.50794 18.0848 9.60806 18.0513 9.69673C18.0179 9.78599 17.9638 9.86199 17.8883 9.92351C17.8129 9.98503 17.7162 10.0333 17.597 10.0677C17.4783 10.102 17.333 10.1195 17.162 10.1195H16.0495V7.62855H17.0337C17.2046 7.62855 17.35 7.64604 17.4704 7.68163C17.5909 7.71721 17.6882 7.76546 17.763 7.82578C17.8378 7.88609 17.8932 7.95666 17.9279 8.03567C17.9625 8.11468 17.9802 8.19731 17.9802 8.28477V8.28537ZM16.7636 9.57067H17.1103C17.2095 9.57067 17.2794 9.55258 17.3202 9.51699C17.3609 9.48141 17.381 9.42169 17.381 9.33665C17.381 9.2498 17.3622 9.19069 17.3238 9.15993C17.2855 9.12917 17.2143 9.11349 17.1109 9.11349H16.7642V9.57067H16.7636ZM16.7636 8.61891H17.058C17.1596 8.61891 17.2289 8.60202 17.2661 8.56704C17.3032 8.53266 17.3214 8.47657 17.3214 8.39876C17.3214 8.32036 17.3025 8.26788 17.2661 8.23893C17.2289 8.21058 17.1584 8.19611 17.055 8.19611H16.7636V8.61891ZM20.3056 7.62915V8.22023H19.2764V8.5984H20.0143V9.11349H19.2764V9.53991H20.3367V10.1207H18.5453V7.62976H20.3056V7.62915ZM21.5082 7.62915V8.56402H22.1353V7.62915H22.8628V10.1201H22.1353V9.16837H21.5082V10.1201H20.7771V7.62915H21.5082ZM24.1597 7.62915V8.56402H24.7868V7.62915H25.5143V10.1201H24.7868V9.16837H24.1597V10.1201H23.4285V7.62915H24.1597ZM27.0642 7.59477C27.2376 7.59477 27.3909 7.6183 27.5253 7.66534C27.6591 7.71239 27.7729 7.77873 27.8647 7.86498C27.9572 7.95063 28.0271 8.05316 28.0746 8.17259C28.122 8.29201 28.1458 8.42349 28.1458 8.56764V9.18285C28.1458 9.327 28.122 9.45909 28.0746 9.57791C28.0271 9.69733 27.9572 9.79926 27.8647 9.88551C27.7723 9.97116 27.6591 10.0381 27.5253 10.0845C27.3915 10.1316 27.2376 10.1551 27.0642 10.1551C26.8909 10.1551 26.7376 10.1316 26.605 10.0845C26.4724 10.0375 26.3592 9.97116 26.2668 9.88551C26.1743 9.79926 26.1044 9.69733 26.0569 9.57791C26.0095 9.45909 25.9858 9.327 25.9858 9.18285V8.56764C25.9858 8.42349 26.0095 8.2914 26.0569 8.17259C26.1044 8.05377 26.1743 7.95123 26.2668 7.86498C26.3592 7.77934 26.4718 7.71239 26.605 7.66534C26.7376 7.6183 26.8909 7.59477 27.0642 7.59477ZM27.414 8.56704C27.414 8.42048 27.3866 8.31553 27.3325 8.2528C27.2784 8.19007 27.1889 8.15811 27.0642 8.15811C26.942 8.15811 26.8532 8.18887 26.799 8.25099C26.7449 8.31312 26.7175 8.41746 26.7175 8.56402V9.18225C26.7175 9.33786 26.7449 9.44883 26.799 9.51397C26.8532 9.57911 26.942 9.61229 27.0642 9.61229C27.1889 9.61229 27.2784 9.57972 27.3325 9.51397C27.3866 9.44883 27.414 9.33786 27.414 9.18225V8.56704ZM29.518 7.59477C29.6361 7.59477 29.7455 7.61166 29.8471 7.64483C29.9487 7.67801 30.0387 7.72264 30.1172 7.77873C30.1957 7.83483 30.262 7.89936 30.3167 7.97294C30.3709 8.04653 30.411 8.12192 30.4359 8.19973L29.9195 8.39937C29.894 8.32337 29.855 8.26547 29.8015 8.22385C29.7486 8.18284 29.678 8.16233 29.5898 8.16233C29.4718 8.16233 29.3873 8.19369 29.3356 8.25642C29.2833 8.31915 29.2577 8.40841 29.2577 8.52301V9.27875C29.2577 9.3843 29.2832 9.46633 29.3337 9.52604C29.3848 9.58575 29.4688 9.6153 29.5868 9.6153C29.6744 9.6153 29.7449 9.59419 29.7979 9.55197C29.8508 9.50975 29.8915 9.44823 29.9189 9.36801L30.442 9.5568C30.3867 9.74679 30.2827 9.89395 30.13 9.9983C29.9773 10.1026 29.7729 10.1545 29.5168 10.1545C29.3666 10.1545 29.2303 10.134 29.1081 10.0924C28.9858 10.0514 28.8806 9.99287 28.793 9.91748C28.7054 9.84208 28.6379 9.75041 28.5904 9.64244C28.543 9.53508 28.5192 9.41446 28.5192 9.28176V8.52603C28.5192 8.38188 28.5436 8.2516 28.5916 8.1364C28.6403 8.02059 28.7078 7.92288 28.7942 7.84267C28.8812 7.76245 28.9852 7.70093 29.1081 7.65871C29.2303 7.61649 29.3672 7.59538 29.5168 7.59538L29.518 7.59477ZM32.6404 7.62915V8.22687H32.0096V10.1201H31.2784V8.22687H30.6476V7.62915H32.6397H32.6404ZM33.7499 7.62915V8.58453H34.0789C34.2474 8.58453 34.3898 8.60263 34.5047 8.63821C34.6203 8.6738 34.7146 8.72446 34.787 8.79081C34.86 8.85715 34.9123 8.93677 34.9445 9.02965C34.9768 9.12253 34.9932 9.22447 34.9932 9.33725C34.9932 9.45668 34.9762 9.56404 34.9427 9.65993C34.9092 9.75584 34.8557 9.83846 34.7815 9.90722C34.7073 9.97598 34.6118 10.0291 34.4938 10.0652C34.3758 10.102 34.2316 10.1201 34.0607 10.1201H33.0175V7.62915H33.7486H33.7499ZM34.0132 9.57067C34.1173 9.57067 34.1878 9.55258 34.2249 9.51699C34.262 9.48141 34.2803 9.42169 34.2803 9.33665C34.2803 9.2498 34.262 9.18948 34.2249 9.15631C34.1878 9.12314 34.1166 9.10685 34.0102 9.10685H33.7468V9.57067H34.0139H34.0132ZM36.138 7.62915V8.5978H36.4397V8.56704C36.4397 8.42289 36.4622 8.2908 36.5072 8.17198C36.5522 8.05316 36.6191 7.95063 36.7085 7.86438C36.7973 7.77873 36.9062 7.71178 37.034 7.66474C37.1623 7.61769 37.3095 7.59417 37.4756 7.59417C37.6416 7.59417 37.7901 7.61769 37.919 7.66474C38.0486 7.71178 38.1575 7.77813 38.2463 7.86438C38.3351 7.95002 38.4026 8.05256 38.4476 8.17198C38.4926 8.2914 38.5151 8.42289 38.5151 8.56704V9.18225C38.5151 9.3264 38.4926 9.45849 38.4476 9.5773C38.4026 9.69673 38.3357 9.79866 38.2463 9.88491C38.1575 9.97055 38.048 10.0375 37.919 10.0839C37.7895 10.131 37.6416 10.1545 37.4756 10.1545C37.3095 10.1545 37.1617 10.131 37.034 10.0839C36.9056 10.0369 36.7973 9.97055 36.7085 9.88491C36.6197 9.79866 36.5528 9.69673 36.5072 9.5773C36.4622 9.45849 36.4397 9.3264 36.4397 9.18225V9.11349H36.138V10.1201H35.4172V7.62915H36.138ZM37.7876 8.56704C37.7876 8.42711 37.7633 8.32759 37.7152 8.26848C37.6666 8.20877 37.5869 8.17922 37.4762 8.17922C37.3655 8.17922 37.2864 8.20877 37.239 8.26848C37.1915 8.32759 37.1678 8.42651 37.1678 8.56402V9.18225C37.1678 9.33122 37.1915 9.43677 37.239 9.49829C37.2864 9.56042 37.3655 9.59118 37.4762 9.59118C37.5869 9.59118 37.6666 9.56042 37.7152 9.49829C37.7639 9.43617 37.7876 9.33122 37.7876 9.18225V8.56704Z" transform="translate(14.5781 14.0449)" fill="#2E2E2D"/>
</svg>
