<svg width="84" height="56" viewBox="0 0 84 56" fill="none" xmlns="http://www.w3.org/2000/svg">
<path fill-rule="evenodd" clip-rule="evenodd" d="M6.53202 5.44964C6.76768 5.44964 6.99777 5.44121 7.2223 5.42434C7.44673 5.40756 7.63749 5.31505 7.79465 5.14691C7.99663 4.92268 8.09767 4.58064 8.09767 4.12088C8.09767 3.96386 8.08088 3.80127 8.0472 3.63303C8.01352 3.46489 7.91814 3.31908 7.76107 3.1958C7.6039 3.06121 7.42159 2.9827 7.21395 2.96036C7.00631 2.93792 6.79032 2.92671 6.56579 2.92671H4.46138C4.30421 2.92671 4.1836 2.95192 4.09945 3.00235C4.0153 3.05277 3.95072 3.11172 3.90591 3.17902C3.861 3.24631 3.83289 3.31918 3.82167 3.39769C3.81044 3.47611 3.80487 3.54905 3.80487 3.61635V5.44974H6.53221L6.53202 5.44964ZM0 11.7738V2.22029C0 1.97354 0.0280193 1.69889 0.0841507 1.39615C0.140282 1.09341 0.269338 0.829887 0.471318 0.605568C0.594807 0.459854 0.785561 0.322482 1.04377 0.193453C1.30188 0.0645158 1.63291 9.50471e-05 2.03706 9.50471e-05H8.5522C9.02351 9.50471e-05 9.47247 0.0477388 9.89898 0.143028C10.3255 0.23841 10.7014 0.465509 11.0269 0.824326C11.3075 1.11585 11.5235 1.51109 11.675 2.01006C11.8266 2.50903 11.9024 3.18458 11.9024 4.0369C11.9024 4.2387 11.894 4.505 11.8771 4.83583C11.8603 5.16665 11.8153 5.51138 11.7424 5.87019C11.6695 6.22901 11.5629 6.57661 11.4226 6.913C11.2823 7.24947 11.0888 7.52413 10.8418 7.73714C10.5612 7.97258 10.2273 8.13803 9.84015 8.23332C9.45289 8.3287 9.09653 8.37635 8.77106 8.37635H3.80469V11.7738H0L0 11.7738ZM18.4513 6.15606C18.6869 6.15606 18.8356 6.09998 18.8974 5.98782C18.9591 5.87575 18.9899 5.77481 18.9899 5.68509C18.9899 5.56171 18.9507 5.44399 18.8721 5.33192C18.7936 5.21976 18.6308 5.13569 18.3839 5.07961C18.2492 5.05718 18.0921 5.04031 17.9125 5.02918C17.733 5.01788 17.5983 5.01241 17.5084 5.01241C17.3176 5.01241 17.11 5.02075 16.8855 5.03762C16.6611 5.0544 16.4871 5.09648 16.3636 5.16378C16.1953 5.25341 16.0886 5.38522 16.0437 5.55902C15.9988 5.73273 15.9877 5.93184 16.0101 6.15615H18.4512L18.4513 6.15606ZM16.3301 11.7738C15.9933 11.7738 15.6735 11.7681 15.3704 11.757C15.0674 11.7458 14.7812 11.7037 14.5119 11.6308C14.2425 11.558 13.9955 11.443 13.7711 11.2861C13.5467 11.1291 13.3446 10.9048 13.1651 10.6133C12.9742 10.2882 12.8508 9.87604 12.7946 9.37707C12.7386 8.8781 12.7105 8.22498 12.7105 7.41762C12.7105 7.01394 12.7105 6.62704 12.7105 6.2571C12.7105 5.88697 12.7301 5.54224 12.7694 5.22264C12.8087 4.90312 12.8788 4.60872 12.9798 4.33964C13.0808 4.07055 13.2323 3.83501 13.4343 3.63322C13.6363 3.42021 13.8916 3.25475 14.2003 3.13703C14.509 3.01931 14.8485 2.93236 15.2188 2.87638C15.5892 2.8203 15.9792 2.78665 16.3888 2.77543C16.7984 2.76422 17.2166 2.75866 17.6431 2.75866C18.5522 2.75866 19.3041 2.78674 19.899 2.84282C20.4938 2.89881 20.9708 3.07261 21.3299 3.36422C21.5432 3.53237 21.7144 3.73982 21.8434 3.98657C21.9725 4.23322 22.0707 4.4911 22.138 4.76019C22.2054 5.02937 22.2475 5.30124 22.2643 5.57599C22.2811 5.85073 22.2895 6.11138 22.2895 6.35804C22.2895 6.64956 22.2643 6.94396 22.2138 7.24104C22.1634 7.53822 22.009 7.78765 21.7509 7.98945C21.6049 8.11282 21.4619 8.18568 21.3216 8.2082C21.1813 8.23054 21.0326 8.24185 20.8754 8.24185H16.0101C15.9988 8.36514 16.0073 8.49417 16.0354 8.62867C16.0634 8.76326 16.1055 8.87541 16.1617 8.96505C16.3075 9.18927 16.518 9.31552 16.7929 9.34351C17.0679 9.3716 17.3513 9.3856 17.6431 9.3856H21.9696V11.7739H16.3299L16.3301 11.7738ZM27.7106 11.7738C27.5423 11.7738 27.3487 11.771 27.1298 11.7653C26.911 11.7598 26.6781 11.7373 26.4312 11.698C26.1842 11.6588 25.9318 11.6 25.6736 11.5214C25.4155 11.4429 25.1741 11.3252 24.9496 11.1682C24.5792 10.9103 24.2987 10.5824 24.1078 10.1842C23.9171 9.78613 23.8217 9.38532 23.8217 8.98164V5.14681H22.5591V2.85932H23.8217V0H27.1214V2.85932H29.6635V5.14681H27.1214V7.18199C27.1214 7.50716 27.1551 7.82955 27.2224 8.14907C27.2898 8.46858 27.4469 8.74054 27.6938 8.96477C27.9183 9.16666 28.1624 9.28716 28.4261 9.32637C28.6899 9.36567 28.9284 9.38523 29.1416 9.38523H29.6299V11.7736H27.7107L27.7106 11.7738ZM30.1348 6.61017C30.1348 6.39716 30.1433 6.16441 30.1602 5.91219C30.177 5.65987 30.2219 5.402 30.2949 5.13847C30.3679 4.87504 30.4745 4.61994 30.6147 4.37319C30.755 4.12644 30.9486 3.90231 31.1955 3.70042C31.4425 3.49863 31.7118 3.34161 32.0036 3.22954C32.2954 3.11738 32.5901 3.0333 32.8875 2.97723C33.1849 2.92115 33.4711 2.8875 33.746 2.87629C34.021 2.86498 34.2708 2.85951 34.4952 2.85951H36.6838V5.18055H35.539C35.2135 5.18055 34.9077 5.21698 34.6214 5.28984C34.3352 5.36279 34.0855 5.53937 33.8723 5.81968C33.6814 6.07755 33.5608 6.36073 33.5103 6.66912C33.4599 6.97751 33.4346 7.2606 33.4346 7.51847V11.7738H30.1348V6.61026V6.61017ZM40.3537 7.31658C40.3537 7.80999 40.3902 8.17159 40.4632 8.40138C40.5362 8.63126 40.6064 8.79097 40.6736 8.8807C40.6849 8.90313 40.7213 8.94799 40.783 9.01529C40.8448 9.08259 40.9346 9.14988 41.0524 9.21717C41.1703 9.28447 41.3161 9.34611 41.4901 9.40219C41.664 9.45818 41.88 9.48627 42.1381 9.48627C42.5871 9.48627 42.9209 9.41331 43.1399 9.2676C43.3588 9.12179 43.5074 8.99286 43.5861 8.8807C43.7208 8.69003 43.8105 8.46302 43.8554 8.19949C43.9003 7.93606 43.9228 7.64166 43.9228 7.31649C43.9228 6.84552 43.892 6.49235 43.8302 6.25682C43.7685 6.02138 43.6927 5.84192 43.6029 5.71855C43.5131 5.60648 43.3616 5.48311 43.1483 5.34852C42.9351 5.21392 42.5983 5.14672 42.1382 5.14672C41.6781 5.14672 41.3415 5.21402 41.1282 5.34852C40.915 5.48311 40.7635 5.60639 40.6737 5.71855C40.6176 5.80828 40.5502 5.9653 40.4717 6.18952C40.3932 6.41375 40.3538 6.78944 40.3538 7.3164L40.3537 7.31658ZM42.1381 2.75847C42.4861 2.75847 42.8452 2.76691 43.2156 2.78378C43.5861 2.80055 43.9452 2.83707 44.293 2.89315C44.641 2.94914 44.9693 3.03887 45.278 3.16225C45.5867 3.28562 45.8643 3.45376 46.1113 3.66677C46.392 3.91352 46.6108 4.20227 46.7679 4.533C46.925 4.86373 47.0429 5.19733 47.1214 5.53372C47.1999 5.8701 47.2477 6.19527 47.2646 6.50922C47.2814 6.82318 47.2898 7.09227 47.2898 7.31658C47.2898 7.54081 47.2815 7.80999 47.2646 8.12395C47.2478 8.4379 47.2 8.76307 47.1214 9.09945C47.0429 9.43593 46.925 9.76944 46.7679 10.1003C46.6108 10.4311 46.392 10.7198 46.1113 10.9665C45.8643 11.1796 45.5867 11.3477 45.278 11.4711C44.9693 11.5944 44.641 11.6841 44.293 11.7402C43.9452 11.7963 43.5861 11.8327 43.2156 11.8496C42.8452 11.8664 42.4861 11.8748 42.1381 11.8748C41.7791 11.8748 41.4171 11.8665 41.0524 11.8496C40.6876 11.8328 40.3314 11.7963 39.9834 11.7402C39.6354 11.6841 39.3072 11.5944 38.9985 11.4711C38.6898 11.3477 38.412 11.1796 38.1651 10.9665C37.8845 10.7198 37.6657 10.4311 37.5086 10.1003C37.3514 9.76944 37.2336 9.43593 37.155 9.09945C37.0765 8.76307 37.0288 8.4379 37.0119 8.12395C36.9951 7.80999 36.9866 7.5409 36.9866 7.31658C36.9866 7.09236 36.995 6.82318 37.0119 6.50922C37.0287 6.19527 37.0764 5.87001 37.155 5.53372C37.2336 5.19733 37.3514 4.86373 37.5086 4.533C37.6657 4.20217 37.8845 3.91343 38.1651 3.66677C38.412 3.45376 38.6898 3.28562 38.9985 3.16225C39.3072 3.03887 39.6353 2.94914 39.9834 2.89315C40.3313 2.83707 40.6876 2.80065 41.0524 2.78378C41.4172 2.767 41.7791 2.75847 42.1381 2.75847ZM51.2054 11.7738H55.01V2.92671H59.2188V9.50471e-05H46.9965V2.92671H51.2053V11.7738H51.2054ZM62.0471 7.31658C62.0471 7.80999 62.0836 8.17159 62.1565 8.40138C62.2296 8.63117 62.2997 8.79097 62.367 8.8807C62.3782 8.90313 62.4147 8.94809 62.4764 9.01529C62.5381 9.08259 62.628 9.14988 62.7458 9.21717C62.8636 9.28447 63.0095 9.3462 63.1834 9.40219C63.3573 9.45818 63.5734 9.48627 63.8316 9.48627C64.2805 9.48627 64.6145 9.41331 64.8333 9.2676C65.0522 9.12188 65.2008 8.99286 65.2795 8.8807C65.4142 8.69003 65.5039 8.46302 65.5488 8.19949C65.5937 7.93615 65.6162 7.64166 65.6162 7.31649C65.6162 6.84552 65.5853 6.49235 65.5236 6.25682C65.4619 6.02147 65.3861 5.84192 65.2964 5.71855C65.2066 5.60648 65.055 5.48311 64.8418 5.34852C64.6286 5.21402 64.2918 5.14672 63.8317 5.14672C63.3715 5.14672 63.0348 5.21402 62.8216 5.34852C62.6084 5.48301 62.4569 5.60639 62.3671 5.71855C62.3109 5.80828 62.2436 5.96539 62.1651 6.18952C62.0866 6.41375 62.0472 6.78944 62.0472 7.3164L62.0471 7.31658ZM63.8316 2.75847C64.1795 2.75847 64.5387 2.767 64.909 2.78378C65.2794 2.80055 65.6386 2.83717 65.9865 2.89315C66.3343 2.94914 66.6627 3.03887 66.9714 3.16225C67.2801 3.28562 67.5578 3.45376 67.8048 3.66677C68.0854 3.91352 68.3043 4.20227 68.4614 4.533C68.6184 4.86364 68.7364 5.19733 68.8148 5.53372C68.8933 5.8701 68.9411 6.19527 68.958 6.50922C68.9748 6.82318 68.9832 7.09227 68.9832 7.31658C68.9832 7.54081 68.9749 7.80999 68.958 8.12395C68.9412 8.4379 68.8933 8.76307 68.8148 9.09945C68.7364 9.43584 68.6184 9.76954 68.4614 10.1003C68.3043 10.4311 68.0854 10.7198 67.8048 10.9665C67.5578 11.1796 67.2801 11.3478 66.9714 11.4711C66.6628 11.5944 66.3344 11.6841 65.9865 11.7402C65.6386 11.7962 65.2794 11.8327 64.909 11.8496C64.5387 11.8664 64.1795 11.8748 63.8316 11.8748C63.4724 11.8748 63.1105 11.8664 62.7458 11.8496C62.3811 11.8328 62.0247 11.7963 61.6767 11.7402C61.3288 11.6841 61.0004 11.5944 60.6918 11.4711C60.3832 11.3478 60.1054 11.1796 59.8584 10.9665C59.5778 10.7198 59.3591 10.4311 59.2019 10.1003C59.0447 9.76944 58.9268 9.43593 58.8483 9.09945C58.7698 8.76316 58.722 8.4379 58.7053 8.12395C58.6885 7.80999 58.6799 7.5409 58.6799 7.31658C58.6799 7.09236 58.6884 6.82318 58.7053 6.50922C58.722 6.19527 58.7697 5.87001 58.8483 5.53372C58.9268 5.19733 59.0448 4.86373 59.2019 4.533C59.3591 4.20227 59.5778 3.91343 59.8584 3.66677C60.1054 3.45376 60.3832 3.28562 60.6918 3.16225C61.0005 3.03887 61.3288 2.94914 61.6767 2.89315C62.0246 2.83717 62.3811 2.80065 62.7458 2.78378C63.1105 2.767 63.4724 2.75847 63.8316 2.75847ZM72.9561 7.31658C72.9561 7.80999 72.9927 8.17159 73.0656 8.40138C73.1386 8.63117 73.2088 8.79097 73.276 8.8807C73.2873 8.90313 73.3237 8.94809 73.3854 9.01529C73.4471 9.08259 73.537 9.14988 73.6549 9.21717C73.7727 9.28447 73.9185 9.3462 74.0925 9.40219C74.2664 9.45818 74.4824 9.48627 74.7406 9.48627C75.1896 9.48627 75.5235 9.41331 75.7424 9.2676C75.9612 9.12188 76.1099 8.99286 76.1886 8.8807C76.3233 8.69003 76.413 8.46302 76.4579 8.19949C76.5028 7.93615 76.5253 7.64166 76.5253 7.31649C76.5253 6.84552 76.4944 6.49235 76.4327 6.25682C76.371 6.02147 76.2952 5.84192 76.2054 5.71855C76.1156 5.60648 75.964 5.48311 75.7508 5.34852C75.5376 5.21402 75.2008 5.14672 74.7407 5.14672C74.2806 5.14672 73.9439 5.21402 73.7306 5.34852C73.5174 5.48301 73.3659 5.60639 73.2761 5.71855C73.22 5.80828 73.1526 5.96539 73.0741 6.18952C72.9957 6.41375 72.9562 6.78944 72.9562 7.3164L72.9561 7.31658ZM74.7406 2.75847C75.0886 2.75847 75.4477 2.767 75.8181 2.78378C76.1885 2.80055 76.5477 2.83717 76.8955 2.89315C77.2434 2.94914 77.5718 3.03887 77.8805 3.16225C78.1891 3.28562 78.4668 3.45376 78.7138 3.66677C78.9945 3.91352 79.2133 4.20227 79.3704 4.533C79.5275 4.86364 79.6454 5.19733 79.7239 5.53372C79.8024 5.8701 79.8502 6.19527 79.8671 6.50922C79.8839 6.82318 79.8923 7.09227 79.8923 7.31658C79.8923 7.54081 79.8839 7.80999 79.8671 8.12395C79.8503 8.4379 79.8024 8.76307 79.7239 9.09945C79.6454 9.43584 79.5275 9.76954 79.3704 10.1003C79.2133 10.4311 78.9945 10.7198 78.7138 10.9665C78.4668 11.1796 78.1891 11.3478 77.8805 11.4711C77.5719 11.5944 77.2435 11.6841 76.8955 11.7402C76.5477 11.7962 76.1885 11.8327 75.8181 11.8496C75.4477 11.8664 75.0886 11.8748 74.7406 11.8748C74.3815 11.8748 74.0196 11.8664 73.6549 11.8496C73.2901 11.8328 72.9338 11.7963 72.5858 11.7402C72.2378 11.6841 71.9095 11.5944 71.6009 11.4711C71.2922 11.3478 71.0144 11.1796 70.7675 10.9665C70.4869 10.7198 70.2681 10.4311 70.111 10.1003C69.9538 9.76944 69.8359 9.43593 69.7574 9.09945C69.6789 8.76316 69.6311 8.4379 69.6143 8.12395C69.5975 7.80999 69.589 7.5409 69.589 7.31658C69.589 7.09236 69.5974 6.82318 69.6143 6.50922C69.6311 6.19527 69.6788 5.87001 69.7574 5.53372C69.8359 5.19733 69.9539 4.86373 70.111 4.533C70.2681 4.20227 70.4869 3.91343 70.7675 3.66677C71.0144 3.45376 71.2922 3.28562 71.6009 3.16225C71.9096 3.03887 72.2378 2.94914 72.5858 2.89315C72.9337 2.83717 73.2901 2.80065 73.6549 2.78378C74.0196 2.767 74.3815 2.75847 74.7406 2.75847V2.75847ZM80.7002 9.50471e-05H84V11.7738H80.7002V9.50471e-05Z" transform="translate(0 44.125)" fill="#354992"/>
<path fill-rule="evenodd" clip-rule="evenodd" d="M15.8522 5.2396L19.3559 7.47027L17.2043 1.46632L15.8522 5.23969V5.2396ZM23.386 5.18064C29.8663 7.65575 34.47 13.9257 34.47 21.2689C34.47 30.7772 26.752 38.488 17.235 38.488C7.71802 38.488 0 30.7772 0 21.2689C0 14.0178 4.48893 7.81249 10.841 5.27473C11.3032 2.48817 13.5791 0.312841 16.4159 0L12.5605 10.7586C11.7354 9.9121 11.1443 8.83694 10.8915 7.63721C5.75296 10.0284 2.18987 15.2333 2.18987 21.2689C2.18987 29.5691 8.92721 36.3002 17.235 36.3002C25.5428 36.3002 32.2802 29.5691 32.2802 21.2689C32.2802 15.1523 28.6212 9.88864 23.3714 7.54201C23.1421 8.72071 22.5867 9.78316 21.8032 10.6321L18.0008 0.0215049C20.725 0.397563 22.8992 2.49587 23.3862 5.18064H23.386ZM20.804 11.5112L20.1958 9.81421L14.6 12.1637C15.3734 12.4975 16.226 12.6828 17.1216 12.6828C18.4937 12.6828 19.7644 12.249 20.804 11.5112ZM19.2521 8.86976L13.7188 11.193L15.4245 6.43303L19.252 8.86976H19.2521Z" transform="translate(24.7651)" fill="#2E2E2D"/>
<path fill-rule="evenodd" clip-rule="evenodd" d="M27.8828 0C27.8488 7.6627 21.619 13.8664 13.9414 13.8664C6.2637 13.8664 0.0340499 7.66261 0 0H2.17706C2.21111 6.46158 7.46594 11.6914 13.9415 11.6914C20.4171 11.6914 25.6719 6.46158 25.7059 0H27.8829H27.8828ZM24.6798 0H22.5027C22.4688 4.69456 18.6481 8.49129 13.9413 8.49129C9.23449 8.49129 5.41394 4.69456 5.37998 0H3.20292C3.23688 5.89559 8.03235 10.6663 13.9413 10.6663C19.8504 10.6663 24.6458 5.89559 24.6798 0V0ZM21.5401 0H19.363C19.3291 2.96249 16.9145 5.35445 13.9413 5.35445C10.9682 5.35445 8.55349 2.96239 8.51963 0H6.34257C6.37652 4.16352 9.76603 7.5295 13.9413 7.5295C18.1166 7.5295 21.5061 4.16352 21.5401 0Z" transform="translate(28.0591 21.3096)" fill="#354992"/>
<path fill-rule="evenodd" clip-rule="evenodd" d="M2.24294 7.32965C3.47347 7.32965 4.48587 6.31809 4.48587 5.08879C4.38177 3.04063 2.45122 1.96742 2.24294 0C1.92099 1.93071 0.104284 3.11571 0 5.08879C0 6.31818 1.0125 7.32965 2.24294 7.32965Z" transform="translate(39.7573 17.0508)" fill="#2E2E2D"/>
</svg>
