<svg width="59" height="60" viewBox="0 0 59 60" fill="none" xmlns="http://www.w3.org/2000/svg">
<rect width="58.4286" height="59.9702" fill="black" fill-opacity="0"/>
<path d="M56.0055 18.4544C56.0055 23.9204 56.0055 29.4626 56.0055 35.0811C55.0902 35.0811 54.3275 35.0811 53.4121 35.0811C53.4121 29.5134 53.4121 23.9712 53.4121 18.3527C52.9036 18.3273 52.5477 18.2765 52.1917 18.2765C46.471 18.2765 40.7504 18.251 35.0297 18.2765C34.0635 18.2765 33.3516 17.9968 32.6905 17.285C28.1903 12.4292 23.6391 7.64963 19.1643 2.79382C18.7066 2.31079 18.2744 1.34471 18.4524 0.887096C18.6558 0.429481 19.6474 0.0481358 20.3084 0.0481358C27.1733 -0.00271033 34.0381 -0.0281334 40.9029 0.0481358C41.6402 0.0481358 42.5555 0.454904 43.0895 0.963365C47.9203 5.71747 52.7257 10.497 57.4802 15.3274C57.9887 15.8358 58.4972 16.7002 58.4209 17.3104C58.2938 18.3782 57.1751 18.2256 56.3361 18.251C56.2852 18.3273 56.2089 18.3782 56.0055 18.4544ZM48.0474 20.8696C43.5471 20.8696 39.0723 20.8442 34.572 20.8696C33.1482 20.8696 32.0295 20.3866 31.0888 19.3696C28.6988 16.8019 26.2834 14.2342 23.868 11.6919C23.0544 10.8275 22.2408 9.98855 21.3763 9.07332C20.461 10.497 19.6728 11.8444 18.7829 13.1156C18.1219 14.0562 18.1473 14.8189 18.9609 15.7087C22.1391 19.268 25.2409 22.9289 28.4445 26.4627C28.9022 26.9711 29.7921 27.3271 30.504 27.3779C32.5634 27.505 34.6483 27.4288 36.7332 27.4288C40.369 27.4288 44.0302 27.4288 47.666 27.4288C48.6576 27.4288 49.4712 27.1745 49.4967 25.9796C49.5221 24.3271 49.4967 22.7001 49.4967 20.8696C48.861 20.8696 48.4542 20.8696 48.0474 20.8696ZM33.3516 59.9702C34.2415 59.9702 35.0297 59.7669 35.1314 58.7499C35.2331 57.733 34.4957 57.3771 33.5804 57.3008C32.2583 57.1737 31.3176 56.5127 30.5294 55.4704C30.2243 55.089 29.6141 54.7585 29.131 54.7331C26.1817 54.6568 23.2069 54.6823 20.2576 54.7331C19.8254 54.7331 19.2406 55.0636 18.9863 55.4195C18.1981 56.4619 17.2828 57.1737 15.9607 57.3008C15.0963 57.3771 14.3081 57.6059 14.3843 58.6991C14.4606 59.8431 15.2997 59.9702 16.215 59.9702C19.0626 59.9702 21.8848 59.9702 24.7324 59.9702C27.6055 59.9448 30.4785 59.9448 33.3516 59.9702ZM56.9971 41.4877C57.5819 40.242 57.2259 39.0471 56.2344 38.3352C55.2428 37.6234 54.1749 37.6234 53.1833 38.3098C52.1663 39.0217 51.8104 40.2165 52.3697 41.4623C53.0053 42.8351 53.7935 44.1317 54.6834 45.835C55.5987 44.1825 56.3615 42.8605 56.9971 41.4877ZM49.4712 48.2502C49.4712 50.7671 48.1237 52.1145 45.632 52.1145C31.699 52.1145 17.7659 52.1145 3.83286 52.1145C1.39203 52.1145 0.019069 50.7925 0.019069 48.3773C-0.00635632 38.3098 -0.00635632 28.2169 0.019069 18.1493C0.019069 15.7342 1.34118 14.4376 3.70573 14.4122C7.64665 14.3867 11.5621 14.4122 15.4522 14.4122C15.7319 15.3274 15.9861 16.1155 16.2658 17.0307C12.2741 17.0307 8.35856 17.0307 4.41764 17.0307C2.63787 17.0307 2.61245 17.0307 2.61245 18.7595C2.61245 26.7169 2.61245 34.6743 2.61245 42.6572C2.61245 43.1656 2.61245 43.6487 2.61245 44.2334C17.3845 44.2334 32.0549 44.2334 46.8524 44.2334C46.8524 39.5047 46.8524 34.8269 46.8524 30.0982C47.7423 30.0982 48.4796 30.0982 49.3441 30.0982C49.3695 30.3778 49.4204 30.7083 49.4204 31.0134C49.4712 36.7336 49.4712 42.5046 49.4712 48.2502ZM26.1308 48.3265C26.1308 47.5638 25.5206 46.9537 24.7579 46.9537C23.9951 46.9537 23.3849 47.5638 23.3849 48.3265C23.3849 49.0892 23.9951 49.6993 24.7579 49.6993C25.4952 49.6993 26.1308 49.0892 26.1308 48.3265Z" fill="#23376C"/>
</svg>
