<svg width="46" height="61" viewBox="0 0 46 61" fill="none" xmlns="http://www.w3.org/2000/svg">
<rect width="45.1725" height="60.4785" fill="black" fill-opacity="0" transform="translate(45.5513) scale(-1 1)"/>
<path d="M17.1902 36.9574C17.2708 37.7187 17.3514 38.4465 17.432 39.1798C17.6436 41.1503 17.8552 43.1207 18.0668 45.0912C18.2582 46.8881 18.4497 48.6851 18.6411 50.4764C18.8527 52.4413 19.0643 54.4005 19.2708 56.3598C19.3514 57.1099 19.4421 57.86 19.5026 58.6101C19.5882 59.6738 20.2582 60.4295 21.2255 60.4575C22.1827 60.4854 23.1399 60.4854 24.0971 60.4575C25.0794 60.4239 25.7394 59.6066 25.82 58.6381C25.9812 56.7069 26.218 54.7868 26.4245 52.8611C26.6361 50.9186 26.8427 48.9761 27.0543 47.0337C27.2608 45.08 27.4674 43.1263 27.679 41.1727C27.8251 39.8292 27.9661 38.4913 28.1122 37.1478C28.1172 37.0918 28.1273 37.0414 28.1374 36.9574C28.4447 36.9574 28.747 36.9574 29.0442 36.9574C30.7067 36.9574 32.082 35.3676 32.0669 33.5035C32.0619 32.6246 31.9057 31.7458 31.815 30.8613C31.6387 29.1315 31.4624 27.3962 31.286 25.6664C31.0896 23.752 30.8931 21.8319 30.7017 19.9174C30.5807 18.697 30.485 17.4655 30.3389 16.2507C30.1475 14.6609 28.9535 13.491 27.5026 13.4574C26.3087 13.4294 25.1197 13.4462 23.9258 13.4462C21.9711 13.4462 20.0114 13.4462 18.0567 13.4462C16.9031 13.4462 15.9711 13.9164 15.3363 15.0304C14.9988 15.6238 14.9736 16.2955 14.9081 16.9617C14.7015 19.0665 14.4849 21.1657 14.2733 23.2705C14.0819 25.1794 13.8904 27.0883 13.699 28.9972C13.5579 30.3967 13.437 31.7962 13.2708 33.1956C13.0491 35.0821 14.4345 36.9126 16.1474 36.9574C16.4849 36.963 16.8225 36.9574 17.1902 36.9574ZM41.2912 41.3238C41.0796 43.2887 40.868 45.2479 40.6564 47.2128C40.465 49.0153 40.2685 50.8235 40.077 52.626C39.9309 53.9751 39.7697 55.3242 39.6539 56.6789C39.5682 57.6921 38.9687 58.4086 38.0518 58.4422C37.1299 58.4758 36.203 58.4702 35.281 58.4422C34.4448 58.4142 33.7898 57.7537 33.7042 56.9308C33.3818 53.8743 33.0644 50.8179 32.7369 47.767C32.3591 44.2515 31.9813 40.7304 31.6085 37.2149C31.5984 37.1142 31.6588 36.9742 31.7243 36.8903C32.0367 36.4872 32.4044 36.1345 32.6714 35.7035C33.1349 34.9534 33.3566 34.1025 33.281 33.19C33.1903 32.0928 33.0594 31.0068 32.9485 29.9097C32.7571 28.0288 32.5656 26.1479 32.3742 24.267C32.1777 22.3581 31.9863 20.4492 31.7898 18.5459C31.6941 17.5998 31.6236 16.6538 31.4876 15.7134C31.4221 15.2655 31.2357 14.8345 31.0845 14.3307C31.4069 14.2635 31.7344 14.1347 32.0669 14.1291C35.1148 14.1123 38.1627 14.1067 41.2106 14.1291C42.1073 14.1347 42.8378 14.5882 43.3869 15.3887C43.7748 15.9485 43.8957 16.5978 43.9612 17.292C44.198 19.839 44.4751 22.3861 44.732 24.9331C44.999 27.5641 45.261 30.1952 45.533 32.8262C45.7043 34.444 44.6514 36.0114 43.2005 36.2297C42.7572 36.2969 42.2987 36.2857 41.8252 36.3137C41.6438 37.993 41.4675 39.6556 41.2912 41.3238ZM3.22537 36.2857C2.76693 36.2857 2.32864 36.1681 1.91553 35.9386C0.92812 35.3844 0.268166 34.1361 0.394112 32.9045C0.590584 31.0068 0.776985 29.1036 0.968422 27.2059C1.13971 25.5265 1.31099 23.8527 1.47724 22.1789C1.64853 20.494 1.82989 18.809 1.97599 17.1184C2.12209 15.3943 3.26063 14.1347 4.79717 14.1235C7.80979 14.1067 10.8224 14.1179 13.8401 14.1235C14.0164 14.1235 14.1927 14.1683 14.4144 14.2019C14.0063 14.924 13.8249 15.6574 13.7645 16.4411C13.6839 17.4319 13.5781 18.4227 13.4824 19.4192C13.2909 21.3448 13.0945 23.2705 12.898 25.2018C12.7217 26.9596 12.5353 28.7229 12.369 30.4806C12.2783 31.4603 12.1474 32.4399 12.1574 33.4195C12.1725 35.1157 12.8728 36.4312 14.1675 37.3493C14.233 37.3941 14.2985 37.5228 14.2884 37.6068C14.1574 38.8831 14.0164 40.1594 13.8804 41.4414C13.6688 43.4006 13.4572 45.3655 13.2456 47.3248C13.0542 49.1217 12.8577 50.913 12.6662 52.7099C12.5252 54.0311 12.364 55.3522 12.2481 56.6789C12.1574 57.7089 11.5781 58.4086 10.6511 58.4366C9.72919 58.4702 8.80223 58.4646 7.88031 58.4366C7.02388 58.4086 6.35889 57.7089 6.2934 56.8412C6.26317 56.4214 6.21783 56.0071 6.17249 55.5929C5.96091 53.628 5.74932 51.6687 5.54277 49.7039C5.33622 47.7614 5.12463 45.8189 4.91808 43.8708C4.70649 41.906 4.4949 39.9467 4.28331 37.9874C4.22285 37.4221 4.1624 36.8623 4.09691 36.2801C3.79464 36.2857 3.50748 36.2857 3.22537 36.2857ZM22.6512 9.4162e-06C25.4472 -0.0055885 27.7041 2.48548 27.7092 5.58113C27.7142 8.68797 25.4522 11.207 22.6613 11.207C19.8754 11.207 17.6235 8.69917 17.6184 5.60352C17.6184 2.49668 19.8603 9.4162e-06 22.6512 9.4162e-06ZM36.6967 12.265C34.0669 12.2818 31.9107 9.91391 31.8956 6.9974C31.8805 4.06969 34.0065 1.68498 36.6412 1.67938C39.2911 1.66819 41.4121 4.00811 41.4221 6.94702C41.4373 9.86353 39.3163 12.2426 36.6967 12.265ZM14.0315 6.96941C14.0214 9.89152 11.9005 12.2538 9.28083 12.265C6.65612 12.2762 4.50497 9.89712 4.4949 6.97501C4.48483 4.0529 6.62086 1.67938 9.26068 1.67938C11.9055 1.67379 14.0365 4.0417 14.0315 6.96941Z" fill="#23376C"/>
</svg>
