<svg width="60" height="60" viewBox="0 0 60 60" fill="none" xmlns="http://www.w3.org/2000/svg">
<rect width="59.4447" height="59.4619" fill="black" fill-opacity="0"/>
<path d="M40.8222 40.9043C33.4062 40.9043 26.0098 40.9043 18.6133 40.9043C18.6133 42.1423 18.6133 43.3512 18.6133 44.56C26.039 44.56 33.4257 44.56 40.8222 44.56C40.8222 43.3219 40.8222 42.1228 40.8222 40.9043Z" fill="#23376C"/>
<path d="M40.8222 48.3721C33.3965 48.3721 25.9903 48.3721 18.6035 48.3721C18.6035 49.6101 18.6035 50.8092 18.6035 52.0082C26.0292 52.0082 33.416 52.0082 40.8222 52.0082C40.8222 50.7702 40.8222 49.5809 40.8222 48.3721Z" fill="#23376C"/>
<path d="M18.6035 37.122C23.5735 37.122 28.485 37.122 33.3867 37.122C33.3867 35.8839 33.3867 34.6751 33.3867 33.4761C28.4363 33.4761 23.5248 33.4761 18.6035 33.4761C18.6035 34.7044 18.6035 35.9034 18.6035 37.122Z" fill="#23376C"/>
<path d="M48.2964 10.577C48.2964 8.40314 48.2964 6.21949 48.2964 4.04559C48.2964 1.55975 46.7372 0 44.2522 0C34.5559 0 24.8596 0 15.1731 0C12.7173 0 11.1386 1.55975 11.1386 4.0066C11.1289 6.21949 11.1386 8.42264 11.1386 10.6355C11.1386 10.7915 11.1386 10.9475 11.1386 11.1132C12.4055 11.1132 13.6041 11.1132 14.8807 11.1132C14.8807 8.6371 14.8807 6.1805 14.8807 3.74339C24.8206 3.74339 34.6826 3.74339 44.6031 3.74339C44.6031 6.21949 44.6031 8.66635 44.6031 11.1132C45.8504 11.1132 47.0491 11.1132 48.3062 11.1132C48.2964 10.8987 48.2964 10.733 48.2964 10.577Z" fill="#23376C"/>
<path d="M59.435 18.8338C59.435 16.4552 57.8758 14.8662 55.5175 14.8662C38.3175 14.8564 21.1175 14.8564 3.92725 14.8662C1.5592 14.8662 0 16.4552 0 18.8241C0 24.8486 0 30.8829 0 36.9074C0 39.3055 1.56895 40.8652 3.97597 40.8652C6.16861 40.8652 8.36124 40.8652 10.5539 40.8652C10.7293 40.8652 10.9047 40.8652 11.1386 40.8652C11.1386 41.1187 11.1386 41.3332 11.1386 41.5379C11.1386 46.1879 11.1386 50.8281 11.1386 55.4781C11.1386 57.8177 12.6978 59.4555 14.9586 59.4555C24.8011 59.4652 34.6436 59.4652 44.4861 59.4457C45.0513 59.4457 45.6652 59.3092 46.172 59.0655C47.663 58.3637 48.3061 57.0964 48.3061 55.4781C48.3061 50.8281 48.3061 46.1879 48.3061 41.5379C48.3061 41.3332 48.3061 41.1284 48.3061 40.8652C48.5595 40.8652 48.7447 40.8652 48.9396 40.8652C51.1127 40.8652 53.2956 40.8652 55.4687 40.8652C57.8758 40.8652 59.4447 39.3055 59.4447 36.9074C59.435 30.8926 59.435 24.8681 59.435 18.8338ZM44.564 55.7121C34.6728 55.7121 24.8011 55.7121 14.8904 55.7121C14.8904 47.075 14.8904 38.4379 14.8904 29.7715C24.7621 29.7715 34.6436 29.7715 44.564 29.7715C44.564 38.4281 44.564 47.0555 44.564 55.7121ZM52.019 26.0184C49.992 26.0281 48.3061 24.3417 48.2964 22.3042C48.2964 20.2571 49.9628 18.5901 52.0092 18.5901C54.046 18.5998 55.7318 20.2863 55.7124 22.314C55.7026 24.3319 54.0265 25.9989 52.019 26.0184Z" fill="#23376C"/>
<path d="M18.6133 40.9044C18.6133 42.1424 18.6133 43.3512 18.6133 44.56C26.039 44.56 33.4257 44.56 40.8222 44.56C40.8222 43.322 40.8222 42.1327 40.8222 40.9044C33.4062 40.9044 26.0097 40.9044 18.6133 40.9044ZM18.6133 48.3717C18.6133 49.6097 18.6133 50.8088 18.6133 52.0078C26.039 52.0078 33.4257 52.0078 40.8319 52.0078C40.8319 50.7795 40.8319 49.5805 40.8319 48.3717C33.3965 48.3717 26 48.3717 18.6133 48.3717ZM33.3867 37.122C33.3867 35.8839 33.3867 34.6751 33.3867 33.4761C28.4363 33.4761 23.5248 33.4761 18.6035 33.4761C18.6035 34.7044 18.6035 35.9034 18.6035 37.122C23.5735 37.122 28.4752 37.122 33.3867 37.122Z" fill="#23376C"/>
</svg>
